<svg xmlns="http://www.w3.org/2000/svg" version="1.1" xmlns:xlink="http://www.w3.org/1999/xlink" xmlns:svgjs="http://svgjs.dev/svgjs" width="1000" height="154" viewBox="0 0 1000 154"><g transform="matrix(1,0,0,1,-0.6060606060606233,-0.5968856161305638)"><svg viewBox="0 0 396 61" data-background-color="#ffffff" preserveAspectRatio="xMidYMid meet" height="154" width="1000" xmlns="http://www.w3.org/2000/svg" xmlns:xlink="http://www.w3.org/1999/xlink"><g id="tight-bounds" transform="matrix(1,0,0,1,0.2400000000000091,0.23642871807768984)"><svg viewBox="0 0 395.52 60.52714256384461" height="60.52714256384461" width="395.52"><g><svg viewBox="0 0 499.53882048641344 76.44533121904311" height="60.52714256384461" width="395.52"><g><rect width="4.482894534818449" height="76.44533121904311" x="87.80059994421684" y="0" fill="#152232" opacity="1" stroke-width="0" stroke="transparent" fill-opacity="1" class="rect-o-0" data-fill-palette-color="primary" rx="1%" id="o-0" data-palette-color="#152232"></rect></g><g transform="matrix(1,0,0,1,104.01882048641342,0.19016251547025576)"><svg viewBox="0 0 395.52 76.0650061881026" height="76.0650061881026" width="395.52"><g id="textblocktransform"><svg viewBox="0 0 395.52 76.0650061881026" height="76.0650061881026" width="395.52" id="textblock"><g><svg viewBox="0 0 395.52 49.70994936960191" height="49.70994936960191" width="395.52"><g transform="matrix(1,0,0,1,0,0)"><svg width="395.52" viewBox="4.199999809265137 -30.65999984741211 245.90000915527344 30.899999618530273" height="49.70994936960191" data-palette-color="#152232"><path d="M5.52 0Q4.83 0 4.52-0.32 4.2-0.63 4.2-1.29L4.2-1.29 4.2-29.52Q4.2-30.49 5.96-30.49L5.96-30.49 6.3-30.49Q8.03-30.49 8.03-29.52L8.03-29.52 8.03-3.3 19.97-3.3Q20.43-3.3 20.63-2.99 20.83-2.69 20.83-2L20.83-2 20.83-1.29Q20.83-0.63 20.63-0.32 20.43 0 19.97 0L19.97 0 5.52 0ZM36.45 0.24Q32.66 0.24 30-0.94 27.34-2.12 25.97-4.37 24.61-6.62 24.61-9.74L24.61-9.74 24.61-29.52Q24.61-30.49 26.34-30.49L26.34-30.49 26.68-30.49Q28.42-30.49 28.42-29.52L28.42-29.52 28.42-9.59Q28.42-7.69 29.47-6.2 30.52-4.71 32.35-3.88 34.18-3.05 36.45-3.05L36.45-3.05Q38.74-3.05 40.57-3.89 42.4-4.74 43.44-6.23 44.48-7.71 44.48-9.59L44.48-9.59 44.48-29.52Q44.48-30.49 46.21-30.49L46.21-30.49 46.58-30.49Q48.29-30.49 48.29-29.52L48.29-29.52 48.29-9.74Q48.29-6.62 46.92-4.37 45.55-2.12 42.89-0.94 40.23 0.24 36.45 0.24L36.45 0.24ZM57.56 0.07Q56.64 0.07 56.22-0.16 55.81-0.39 55.81-0.88L55.81-0.88 55.81-29.52Q55.81-30.49 57.56-30.49L57.56-30.49 59.1-30.49Q60.54-30.49 60.93-29.69L60.93-29.69 69.14-15.45 70.26-12.72 71.38-15.21 79.61-29.69Q80.02-30.49 81.42-30.49L81.42-30.49 82.86-30.49Q84.59-30.49 84.59-29.52L84.59-29.52 84.59-0.88Q84.59 0.07 82.86 0.07L82.86 0.07 82.56 0.07Q81.64 0.07 81.22-0.16 80.81-0.39 80.81-0.88L80.81-0.88 80.81-24.24 80.73-24.05 72.09-9.03Q71.92-8.74 71.7-8.61 71.48-8.47 71.14-8.47L71.14-8.47 69.4-8.47Q68.75-8.47 68.43-9.03L68.43-9.03 59.59-24.49 59.59-0.88Q59.59 0.07 57.86 0.07L57.86 0.07 57.56 0.07ZM104.31 0.24Q97.8 0.24 94.38-3.71 90.96-7.67 90.96-15.28L90.96-15.28Q90.96-22.88 94.37-26.77 97.77-30.66 104.31-30.66L104.31-30.66Q110.88-30.66 114.3-26.77 117.72-22.88 117.72-15.28L117.72-15.28Q117.72-7.67 114.3-3.71 110.88 0.24 104.31 0.24L104.31 0.24ZM104.31-3.05Q108.9-3.05 111.35-6.19 113.79-9.33 113.79-15.28L113.79-15.28Q113.79-21.24 111.36-24.3 108.93-27.37 104.31-27.37L104.31-27.37Q99.72-27.37 97.31-24.3 94.89-21.24 94.89-15.28L94.89-15.28Q94.89-9.3 97.31-6.18 99.72-3.05 104.31-3.05L104.31-3.05ZM130.8 0.24Q128.41 0.24 126.34-0.28 124.28-0.81 123.05-1.55 121.82-2.29 121.82-2.91L121.82-2.91Q121.82-3.25 122.1-3.81 122.38-4.37 122.74-4.81 123.11-5.25 123.33-5.25L123.33-5.25Q123.53-5.25 124.18-4.86L124.18-4.86Q125.7-4.08 127.19-3.56 128.68-3.05 130.8-3.05L130.8-3.05Q132.46-3.05 133.75-3.69 135.05-4.32 135.77-5.48 136.49-6.64 136.49-8.15L136.49-8.15Q136.49-9.77 135.62-10.83 134.76-11.89 133.52-12.51 132.29-13.13 129.95-14.06L129.95-14.06Q127.41-15.04 125.93-15.88 124.45-16.72 123.42-18.33 122.38-19.95 122.38-22.61L122.38-22.61Q122.38-24.93 123.57-26.77 124.77-28.61 126.97-29.64 129.16-30.66 132.02-30.66L132.02-30.66Q133.32-30.66 134.98-30.31 136.64-29.96 137.82-29.35 139-28.74 139-28L139-28Q139-27.69 138.75-27.14 138.49-26.59 138.15-26.15 137.81-25.71 137.61-25.71L137.61-25.71Q137.39-25.71 136.73-26.07L136.73-26.07Q135.63-26.66 134.56-27.01 133.49-27.37 131.95-27.37L131.95-27.37Q129.43-27.37 127.88-26.07 126.33-24.78 126.33-22.46L126.33-22.46Q126.33-21.07 127.02-20.17 127.7-19.26 128.75-18.73 129.8-18.19 131.68-17.48L131.68-17.48Q131.8-17.46 132.24-17.29L132.24-17.29Q134.83-16.28 136.48-15.34 138.12-14.4 139.28-12.65 140.44-10.89 140.44-8.15L140.44-8.15Q140.44-5.59 139.26-3.69 138.08-1.78 135.89-0.77 133.71 0.24 130.8 0.24L130.8 0.24ZM147.86 0.07Q146.11 0.07 146.11-0.88L146.11-0.88 146.11-29.52Q146.11-30.49 147.86-30.49L147.86-30.49 148.21-30.49Q149.94-30.49 149.94-29.52L149.94-29.52 149.94-17.24 165.66-17.24 165.66-29.52Q165.66-30.49 167.39-30.49L167.39-30.49 167.74-30.49Q169.47-30.49 169.47-29.52L169.47-29.52 169.47-0.88Q169.47-0.39 169.05-0.16 168.64 0.07 167.74 0.07L167.74 0.07 167.39 0.07Q166.49 0.07 166.08-0.16 165.66-0.39 165.66-0.88L165.66-0.88 165.66-13.94 149.94-13.94 149.94-0.88Q149.94 0.07 148.21 0.07L148.21 0.07 147.86 0.07ZM189.56 0.24Q183.04 0.24 179.62-3.71 176.21-7.67 176.21-15.28L176.21-15.28Q176.21-22.88 179.61-26.77 183.02-30.66 189.56-30.66L189.56-30.66Q196.13-30.66 199.55-26.77 202.96-22.88 202.96-15.28L202.96-15.28Q202.96-7.67 199.55-3.71 196.13 0.24 189.56 0.24L189.56 0.24ZM189.56-3.05Q194.15-3.05 196.59-6.19 199.03-9.33 199.03-15.28L199.03-15.28Q199.03-21.24 196.6-24.3 194.17-27.37 189.56-27.37L189.56-27.37Q184.97-27.37 182.55-24.3 180.14-21.24 180.14-15.28L180.14-15.28Q180.14-9.3 182.55-6.18 184.97-3.05 189.56-3.05L189.56-3.05ZM216.05 0.24Q213.65 0.24 211.59-0.28 209.53-0.81 208.3-1.55 207.06-2.29 207.06-2.91L207.06-2.91Q207.06-3.25 207.34-3.81 207.62-4.37 207.99-4.81 208.36-5.25 208.58-5.25L208.58-5.25Q208.77-5.25 209.43-4.86L209.43-4.86Q210.94-4.08 212.43-3.56 213.92-3.05 216.05-3.05L216.05-3.05Q217.71-3.05 219-3.69 220.3-4.32 221.02-5.48 221.74-6.64 221.74-8.15L221.74-8.15Q221.74-9.77 220.87-10.83 220-11.89 218.77-12.51 217.54-13.13 215.19-14.06L215.19-14.06Q212.65-15.04 211.18-15.88 209.7-16.72 208.66-18.33 207.62-19.95 207.62-22.61L207.62-22.61Q207.62-24.93 208.82-26.77 210.02-28.61 212.21-29.64 214.41-30.66 217.27-30.66L217.27-30.66Q218.56-30.66 220.22-30.31 221.88-29.96 223.07-29.35 224.25-28.74 224.25-28L224.25-28Q224.25-27.69 223.99-27.14 223.74-26.59 223.4-26.15 223.05-25.71 222.86-25.71L222.86-25.71Q222.64-25.71 221.98-26.07L221.98-26.07Q220.88-26.66 219.81-27.01 218.73-27.37 217.19-27.37L217.19-27.37Q214.68-27.37 213.13-26.07 211.58-24.78 211.58-22.46L211.58-22.46Q211.58-21.07 212.26-20.17 212.95-19.26 214-18.73 215.05-18.19 216.93-17.48L216.93-17.48Q217.05-17.46 217.49-17.29L217.49-17.29Q220.08-16.28 221.72-15.34 223.37-14.4 224.53-12.65 225.69-10.89 225.69-8.15L225.69-8.15Q225.69-5.59 224.51-3.69 223.32-1.78 221.14-0.77 218.95 0.24 216.05 0.24L216.05 0.24ZM238.97 0.07Q238.07 0.07 237.65-0.16 237.24-0.39 237.24-0.88L237.24-0.88 237.24-27.08 228.89-27.08Q228.42-27.08 228.23-27.39 228.03-27.71 228.03-28.37L228.03-28.37 228.03-29.08Q228.03-29.76 228.23-30.07 228.42-30.37 228.89-30.37L228.89-30.37 249.25-30.37Q249.71-30.37 249.91-30.07 250.1-29.76 250.1-29.08L250.1-29.08 250.1-28.37Q250.1-27.71 249.91-27.39 249.71-27.08 249.25-27.08L249.25-27.08 241.07-27.08 241.07-0.88Q241.07 0.07 239.31 0.07L239.31 0.07 238.97 0.07Z" opacity="1" transform="matrix(1,0,0,1,0,0)" fill="#152232" class="undefined-text-0" data-fill-palette-color="primary" id="text-0"></path></svg></g></svg></g><g transform="matrix(1,0,0,1,0,61.44527537698005)"><svg viewBox="0 0 232.209792 14.619730811122553" height="14.619730811122553" width="232.209792"><g transform="matrix(1,0,0,1,0,0)"><svg width="232.209792" viewBox="4.050000190734863 -36.20000076293945 728.1699829101562 45.849998474121094" height="14.619730811122553" data-palette-color="#5ebc67"><path d="M9.15-33.7L9.15 0 4.05 0 4.05-33.7 9.15-33.7ZM21.8-35.35L21.8 0 16.85 0 16.85-35.35 21.8-35.35ZM34.05-35.35L34.05 0 29.09 0 29.09-35.35 34.05-35.35ZM61.79-25.35L61.79 0 56.89 0 56.89-4.35Q54.89 0.3 48.99 0.3L48.99 0.3Q45.24 0.3 43.04-1.93 40.84-4.15 40.84-8.05L40.84-8.05 40.84-25.35 45.79-25.35 45.79-9.25Q45.79-6.65 47.07-5.28 48.34-3.9 50.59-3.9L50.59-3.9Q53.44-3.9 55.17-5.9 56.89-7.9 56.89-11.55L56.89-11.55 56.89-25.35 61.79-25.35ZM103.54-17.05L103.54 0 98.64 0 98.64-16Q98.64-21.45 94.24-21.45L94.24-21.45Q92.04-21.45 90.32-19.5 88.59-17.55 88.59-13.75L88.59-13.75 88.59 0 83.69 0 83.69-16Q83.69-21.45 79.24-21.45L79.24-21.45Q77.09-21.45 75.34-19.5 73.59-17.55 73.59-13.75L73.59-13.75 73.59 0 68.69 0 68.69-25.35 73.59-25.35 73.59-21.3Q75.74-25.7 80.74-25.7L80.74-25.7Q86.44-25.7 88.04-20.8L88.04-20.8Q89.09-23.15 91.09-24.43 93.09-25.7 95.59-25.7L95.59-25.7Q99.49-25.7 101.52-23.4 103.54-21.1 103.54-17.05L103.54-17.05ZM115.34-25.35L115.34 0 110.39 0 110.39-25.35 115.34-25.35ZM115.94-33.1L115.94-33.1Q115.94-31.85 115.04-30.95 114.14-30.05 112.84-30.05 111.54-30.05 110.66-30.93 109.79-31.8 109.79-33.1 109.79-34.4 110.66-35.3 111.54-36.2 112.84-36.2 114.14-36.2 115.04-35.3 115.94-34.4 115.94-33.1ZM143.39-17.15L143.39 0 138.49 0 138.49-16Q138.49-18.65 137.16-20.05 135.84-21.45 133.64-21.45L133.64-21.45Q131.04-21.45 129.19-19.43 127.34-17.4 127.34-13.75L127.34-13.75 127.34 0 122.44 0 122.44-25.35 127.34-25.35 127.34-21Q129.59-25.7 135.24-25.7L135.24-25.7Q138.99-25.7 141.19-23.4 143.39-21.1 143.39-17.15L143.39-17.15ZM158.18-3.65L158.18-3.65Q160.58-3.65 161.96-4.98 163.33-6.3 163.33-8.45L163.33-8.45 163.33-11.3 159.53-11.3Q156.73-11.3 155.31-10.2 153.88-9.1 153.88-7.4L153.88-7.4Q153.88-5.65 154.98-4.65 156.08-3.65 158.18-3.65ZM163.48 0L163.48-3Q161.53 0.2 156.63 0.2L156.63 0.2Q153.03 0.2 150.86-1.88 148.68-3.95 148.68-7.15L148.68-7.15Q148.68-10.8 151.43-12.83 154.18-14.85 159.13-14.85L159.13-14.85 163.33-14.85 163.33-16.3Q163.33-18.9 162.08-20.23 160.83-21.55 157.93-21.55L157.93-21.55Q153.88-21.55 150.58-19.3L150.58-19.3 150.58-24.05Q153.53-25.75 158.38-25.75L158.38-25.75Q168.33-25.75 168.33-16.1L168.33-16.1 168.33 0 163.48 0ZM188.23-5.05L188.23-0.65Q186.58 0.25 184.18 0.25L184.18 0.25Q176.33 0.25 176.33-7.7L176.33-7.7 176.33-21.55 172.38-21.55 172.38-25.35 176.33-25.35 176.33-31.55 181.28-31.55 181.28-25.35 187.93-25.35 187.93-21.55 181.28-21.55 181.28-7.6Q181.28-3.95 184.78-3.95L184.78-3.95Q186.83-3.95 188.23-5.05L188.23-5.05ZM198.78-25.35L198.78 0 193.83 0 193.83-25.35 198.78-25.35ZM199.38-33.1L199.38-33.1Q199.38-31.85 198.48-30.95 197.58-30.05 196.28-30.05 194.98-30.05 194.1-30.93 193.23-31.8 193.23-33.1 193.23-34.4 194.1-35.3 194.98-36.2 196.28-36.2 197.58-36.2 198.48-35.3 199.38-34.4 199.38-33.1ZM226.83-17.15L226.83 0 221.93 0 221.93-16Q221.93-18.65 220.6-20.05 219.28-21.45 217.08-21.45L217.08-21.45Q214.48-21.45 212.63-19.43 210.78-17.4 210.78-13.75L210.78-13.75 210.78 0 205.88 0 205.88-25.35 210.78-25.35 210.78-21Q213.03-25.7 218.68-25.7L218.68-25.7Q222.43-25.7 224.63-23.4 226.83-21.1 226.83-17.15L226.83-17.15ZM254.77-25.35L254.77-2.15Q254.77 3.7 251.45 6.68 248.12 9.65 242.92 9.65L242.92 9.65Q238.02 9.65 234.67 8L234.67 8 234.67 3.05Q237.87 5.15 242.42 5.15L242.42 5.15Q249.87 5.15 249.87-2.2L249.87-2.2 249.87-4.8Q247.42-0.7 242.52-0.7L242.52-0.7Q238.22-0.7 235.17-3.88 232.12-7.05 232.12-12.85L232.12-12.85Q232.12-18.45 234.97-22.08 237.82-25.7 242.52-25.7L242.52-25.7Q247.57-25.7 249.87-21.4L249.87-21.4 249.87-25.35 254.77-25.35ZM237.27-12.95L237.27-12.95Q237.27-9 239.1-6.95 240.92-4.9 243.42-4.9L243.42-4.9Q246.02-4.9 247.95-6.93 249.87-8.95 249.87-12.6L249.87-12.6Q249.87-17.1 248.05-19.25 246.22-21.4 243.62-21.4L243.62-21.4Q240.67-21.4 238.97-19.07 237.27-16.75 237.27-12.95ZM287.92-12.55L287.92 0 282.77 0 282.77-12.55 271.37-33.7 277.27-33.7 279.67-28.75Q281.97-24.1 283.37-21.1 284.77-18.1 285.02-17.4L285.02-17.4 285.32-16.75Q285.77-18.25 291.12-28.75L291.12-28.75 293.57-33.7 299.47-33.7 287.92-12.55ZM323.62-22.03Q326.76-18.35 326.76-12.65 326.76-6.95 323.54-3.25 320.31 0.45 314.67 0.45L314.67 0.45Q309.06 0.45 305.87-3.2 302.67-6.85 302.67-12.45L302.67-12.45Q302.67-18.15 305.97-21.93 309.26-25.7 314.67-25.7L314.67-25.7Q320.47-25.7 323.62-22.03ZM307.76-12.6L307.76-12.6Q307.76-8.85 309.62-6.28 311.47-3.7 314.67-3.7L314.67-3.7Q318.06-3.7 319.84-6.2 321.62-8.7 321.62-12.55L321.62-12.55Q321.62-16.5 319.92-19.03 318.22-21.55 314.62-21.55L314.62-21.55Q311.37-21.55 309.56-18.98 307.76-16.4 307.76-12.6ZM352.91-25.35L352.91 0 348.01 0 348.01-4.35Q346.01 0.3 340.11 0.3L340.11 0.3Q336.36 0.3 334.16-1.93 331.96-4.15 331.96-8.05L331.96-8.05 331.96-25.35 336.91-25.35 336.91-9.25Q336.91-6.65 338.19-5.28 339.46-3.9 341.71-3.9L341.71-3.9Q344.56-3.9 346.29-5.9 348.01-7.9 348.01-11.55L348.01-11.55 348.01-25.35 352.91-25.35ZM364.71-13.5L364.71 0 359.81 0 359.81-25.35 364.71-25.35 364.71-20.9Q366.56-25.6 371.36-25.6L371.36-25.6Q372.06-25.6 372.91-25.45L372.91-25.45 372.91-20.65Q371.86-21.1 370.56-21.1L370.56-21.1Q368.01-21.1 366.36-18.85 364.71-16.6 364.71-13.5L364.71-13.5ZM414.71-29.63Q418.86-24.9 418.86-17 418.86-9.1 414.68-4.35 410.5 0.4 403.41 0.4L403.41 0.4Q396.36 0.4 392.13-4.35 387.91-9.1 387.91-17L387.91-17Q387.91-24.85 392.11-29.6 396.31-34.35 403.36-34.35L403.36-34.35Q410.56-34.35 414.71-29.63ZM395.98-26.18Q393.31-22.8 393.31-17 393.31-11.2 396.06-7.8 398.81-4.4 403.41-4.4L403.41-4.4Q408.16-4.4 410.81-7.75 413.46-11.1 413.46-17L413.46-17Q413.46-22.85 410.78-26.2 408.11-29.55 403.36-29.55L403.36-29.55Q398.66-29.55 395.98-26.18ZM445.55-17.15L445.55 0 440.65 0 440.65-16Q440.65-18.65 439.33-20.05 438-21.45 435.8-21.45L435.8-21.45Q433.2-21.45 431.35-19.43 429.5-17.4 429.5-13.75L429.5-13.75 429.5 0 424.6 0 424.6-25.35 429.5-25.35 429.5-21Q431.75-25.7 437.4-25.7L437.4-25.7Q441.15-25.7 443.35-23.4 445.55-21.1 445.55-17.15L445.55-17.15ZM457.3-35.35L457.3 0 452.35 0 452.35-35.35 457.3-35.35ZM469.55-25.35L469.55 0 464.6 0 464.6-25.35 469.55-25.35ZM470.15-33.1L470.15-33.1Q470.15-31.85 469.25-30.95 468.35-30.05 467.05-30.05 465.75-30.05 464.87-30.93 464-31.8 464-33.1 464-34.4 464.87-35.3 465.75-36.2 467.05-36.2 468.35-36.2 469.25-35.3 470.15-34.4 470.15-33.1ZM497.6-17.15L497.6 0 492.7 0 492.7-16Q492.7-18.65 491.37-20.05 490.05-21.45 487.85-21.45L487.85-21.45Q485.25-21.45 483.4-19.43 481.55-17.4 481.55-13.75L481.55-13.75 481.55 0 476.65 0 476.65-25.35 481.55-25.35 481.55-21Q483.8-25.7 489.45-25.7L489.45-25.7Q493.2-25.7 495.4-23.4 497.6-21.1 497.6-17.15L497.6-17.15ZM523.09-5.75L523.09-1.35Q520.29 0.25 515.69 0.25L515.69 0.25Q509.79 0.25 506.29-3.3 502.79-6.85 502.79-12.6L502.79-12.6Q502.79-18.7 505.99-22.18 509.19-25.65 514.14-25.65L514.14-25.65Q518.99-25.65 521.84-22.63 524.69-19.6 524.69-13.9L524.69-13.9Q524.69-12.35 524.39-10.65L524.39-10.65 507.74-10.65Q508.24-7.35 510.54-5.6 512.84-3.85 516.34-3.85L516.34-3.85Q520.39-3.85 523.09-5.75L523.09-5.75ZM514.24-21.6L514.24-21.6Q511.74-21.6 509.94-19.78 508.14-17.95 507.69-14.5L507.69-14.5 519.94-14.5 519.94-15.4Q519.84-18.25 518.39-19.93 516.94-21.6 514.24-21.6ZM552.89-11.95L552.89-11.95 548.09-11.95 548.09 0 542.94 0 542.94-33.7 552.59-33.7Q558.39-33.7 561.79-30.63 565.19-27.55 565.19-22.75 565.19-17.95 561.76-14.95 558.34-11.95 552.89-11.95ZM552.39-29.45L552.39-29.45 548.09-29.45 548.09-16.2 552.49-16.2Q556.14-16.2 558.06-18 559.99-19.8 559.99-22.75L559.99-22.75Q559.99-25.85 558.04-27.65 556.09-29.45 552.39-29.45ZM575.13-13.5L575.13 0 570.23 0 570.23-25.35 575.13-25.35 575.13-20.9Q576.98-25.6 581.78-25.6L581.78-25.6Q582.48-25.6 583.33-25.45L583.33-25.45 583.33-20.65Q582.28-21.1 580.98-21.1L580.98-21.1Q578.43-21.1 576.78-18.85 575.13-16.6 575.13-13.5L575.13-13.5ZM606.08-5.75L606.08-1.35Q603.28 0.25 598.68 0.25L598.68 0.25Q592.78 0.25 589.28-3.3 585.78-6.85 585.78-12.6L585.78-12.6Q585.78-18.7 588.98-22.18 592.18-25.65 597.13-25.65L597.13-25.65Q601.98-25.65 604.83-22.63 607.68-19.6 607.68-13.9L607.68-13.9Q607.68-12.35 607.38-10.65L607.38-10.65 590.73-10.65Q591.23-7.35 593.53-5.6 595.83-3.85 599.33-3.85L599.33-3.85Q603.38-3.85 606.08-5.75L606.08-5.75ZM597.23-21.6L597.23-21.6Q594.73-21.6 592.93-19.78 591.13-17.95 590.68-14.5L590.68-14.5 602.93-14.5 602.93-15.4Q602.83-18.25 601.38-19.93 599.93-21.6 597.23-21.6ZM629.28-7L629.28-7Q629.28-3.6 626.88-1.68 624.48 0.25 620.38 0.25L620.38 0.25Q615.88 0.25 612.88-1.25L612.88-1.25 612.88-5.9Q616.38-3.75 620.13-3.75L620.13-3.75Q622.08-3.75 623.15-4.55 624.23-5.35 624.23-6.65L624.23-6.65Q624.23-7.75 623.38-8.63 622.53-9.5 621.65-9.93 620.78-10.35 618.68-11.25L618.68-11.25Q612.73-13.7 612.73-18.45L612.73-18.45Q612.73-21.8 615.23-23.7 617.73-25.6 621.48-25.6L621.48-25.6Q625.58-25.6 627.88-24.5L627.88-24.5 627.88-20.05Q625.43-21.5 621.58-21.5L621.58-21.5Q619.83-21.5 618.8-20.7 617.78-19.9 617.78-18.6L617.78-18.6Q617.78-18.25 617.85-17.93 617.93-17.6 618.13-17.28 618.33-16.95 618.5-16.73 618.68-16.5 619.08-16.25 619.48-16 619.7-15.83 619.93-15.65 620.45-15.4 620.98-15.15 621.23-15.03 621.48-14.9 622.1-14.63 622.73-14.35 622.98-14.25L622.98-14.25Q625.93-12.95 627.6-11.33 629.28-9.7 629.28-7ZM653.28-5.75L653.28-1.35Q650.48 0.25 645.88 0.25L645.88 0.25Q639.98 0.25 636.48-3.3 632.98-6.85 632.98-12.6L632.98-12.6Q632.98-18.7 636.18-22.18 639.38-25.65 644.33-25.65L644.33-25.65Q649.18-25.65 652.03-22.63 654.88-19.6 654.88-13.9L654.88-13.9Q654.88-12.35 654.58-10.65L654.58-10.65 637.93-10.65Q638.43-7.35 640.73-5.6 643.03-3.85 646.53-3.85L646.53-3.85Q650.58-3.85 653.28-5.75L653.28-5.75ZM644.43-21.6L644.43-21.6Q641.93-21.6 640.13-19.78 638.33-17.95 637.88-14.5L637.88-14.5 650.13-14.5 650.13-15.4Q650.03-18.25 648.58-19.93 647.13-21.6 644.43-21.6ZM681.57-17.15L681.57 0 676.67 0 676.67-16Q676.67-18.65 675.35-20.05 674.02-21.45 671.82-21.45L671.82-21.45Q669.22-21.45 667.37-19.43 665.52-17.4 665.52-13.75L665.52-13.75 665.52 0 660.62 0 660.62-25.35 665.52-25.35 665.52-21Q667.77-25.7 673.42-25.7L673.42-25.7Q677.17-25.7 679.37-23.4 681.57-21.1 681.57-17.15L681.57-17.15ZM706.07-5.4L706.07-1Q703.62 0.5 699.82 0.5L699.82 0.5Q693.87 0.5 690.32-3.25 686.77-7 686.77-12.6L686.77-12.6Q686.77-18.05 690.35-21.93 693.92-25.8 700.02-25.8L700.02-25.8Q703.32-25.8 706.07-24.4L706.07-24.4 706.07-19.9Q703.62-21.45 700.52-21.45L700.52-21.45Q696.57-21.45 694.2-18.95 691.82-16.45 691.82-12.55L691.82-12.55Q691.92-8.7 694.17-6.23 696.42-3.75 700.47-3.75L700.47-3.75Q703.47-3.75 706.07-5.4L706.07-5.4ZM730.62-5.75L730.62-1.35Q727.82 0.25 723.22 0.25L723.22 0.25Q717.32 0.25 713.82-3.3 710.32-6.85 710.32-12.6L710.32-12.6Q710.32-18.7 713.52-22.18 716.72-25.65 721.67-25.65L721.67-25.65Q726.52-25.65 729.37-22.63 732.22-19.6 732.22-13.9L732.22-13.9Q732.22-12.35 731.92-10.65L731.92-10.65 715.27-10.65Q715.77-7.35 718.07-5.6 720.37-3.85 723.87-3.85L723.87-3.85Q727.92-3.85 730.62-5.75L730.62-5.75ZM721.77-21.6L721.77-21.6Q719.27-21.6 717.47-19.78 715.67-17.95 715.22-14.5L715.22-14.5 727.47-14.5 727.47-15.4Q727.37-18.25 725.92-19.93 724.47-21.6 721.77-21.6Z" opacity="1" transform="matrix(1,0,0,1,0,0)" fill="#5ebc67" class="undefined-text-1" data-fill-palette-color="secondary" id="text-1"></path></svg></g></svg></g></svg></g></svg></g><g transform="matrix(1,0,0,1,0,0.19016251547025576)"><svg viewBox="0 0 76.06527393683871 76.0650061881026" height="76.0650061881026" width="76.06527393683871"><g><svg xmlns="http://www.w3.org/2000/svg" xmlns:xlink="http://www.w3.org/1999/xlink" version="1.1" x="0" y="0" viewBox="7.734947204589844 7.735245704650879 84.53054809570312 84.5302505493164" enable-background="new 0 0 100 100" xml:space="preserve" height="76.0650061881026" width="76.06527393683871" class="icon-icon-0" data-fill-palette-color="accent" id="icon-0"><g fill="#5ebc67" data-fill-palette-color="accent"><g fill="#5ebc67" data-fill-palette-color="accent"><g fill="#5ebc67" data-fill-palette-color="accent"><path d="M28.368 14.767C42.162 16.327 48.04 25.762 49.69 30.695c1.07 3.198 1.472 5.094 1.472 9.275 0 0.817 0.044 2.076-1.054 2.216-0.77 0.099-1.209-0.509-1.273-1.182-0.289-3.026-1.159-6.569-4.008-9.85-2.253-2.594-7.472-7.802-16.652-7.021-2.669 0.228-5.052-1.868-5.129-4.564C22.964 16.703 25.531 14.446 28.368 14.767z" fill="#5ebc67" data-fill-palette-color="accent"></path><path d="M71.633 85.232c-13.794-1.561-19.671-10.995-21.322-15.929-1.07-3.198-1.472-5.094-1.472-9.275 0-0.817-0.044-2.076 1.054-2.216 0.77-0.099 1.209 0.509 1.273 1.182 0.289 3.026 1.159 6.569 4.008 9.85 2.253 2.594 7.472 7.802 16.652 7.021 2.669-0.228 5.052 1.868 5.129 4.564C77.037 83.296 74.47 85.553 71.633 85.232z" fill="#5ebc67" data-fill-palette-color="accent"></path></g><g fill="#5ebc67" data-fill-palette-color="accent"><path d="M14.768 71.633c1.56-13.794 10.995-19.672 15.928-21.322 3.198-1.07 5.094-1.472 9.276-1.472 0.817 0 2.076-0.045 2.216 1.054 0.098 0.77-0.509 1.209-1.182 1.273-3.026 0.288-6.569 1.159-9.849 4.008-2.594 2.254-7.802 7.473-7.021 16.652 0.228 2.669-1.868 5.052-4.564 5.129C16.704 77.036 14.447 74.47 14.768 71.633z" fill="#5ebc67" data-fill-palette-color="accent"></path><path d="M85.233 28.367c-1.56 13.794-10.995 19.672-15.928 21.322-3.198 1.07-5.094 1.472-9.276 1.472-0.817 0-2.076 0.045-2.216-1.054-0.098-0.77 0.509-1.209 1.182-1.273 3.026-0.288 6.569-1.159 9.849-4.008 2.594-2.254 7.802-7.473 7.021-16.652-0.228-2.669 1.868-5.052 4.564-5.129C83.297 22.964 85.554 25.53 85.233 28.367z" fill="#5ebc67" data-fill-palette-color="accent"></path></g></g><g fill="#5ebc67" data-fill-palette-color="accent"><g fill="#5ebc67" data-fill-palette-color="accent"><path d="M13.65 30.304c12.726-5.546 22.533-0.314 26.43 3.133 2.526 2.234 3.821 3.676 5.912 7.297 0.409 0.708 1.077 1.775 0.195 2.446-0.617 0.47-1.302 0.164-1.693-0.387-1.763-2.477-4.289-5.109-8.396-6.525-3.249-1.12-10.373-3.021-17.931 2.246-2.198 1.531-5.309 0.907-6.724-1.389C9.938 34.682 11.033 31.444 13.65 30.304z" fill="#5ebc67" data-fill-palette-color="accent"></path><path d="M86.351 69.695c-12.726 5.546-22.533 0.314-26.43-3.133-2.526-2.234-3.821-3.676-5.912-7.297-0.409-0.708-1.077-1.775-0.196-2.446 0.618-0.47 1.302-0.164 1.694 0.387 1.763 2.477 4.289 5.109 8.396 6.525 3.249 1.12 10.373 3.021 17.931-2.245 2.198-1.532 5.309-0.908 6.724 1.388C90.063 65.317 88.968 68.555 86.351 69.695z" fill="#5ebc67" data-fill-palette-color="accent"></path></g><g fill="#5ebc67" data-fill-palette-color="accent"><path d="M30.304 86.351c-5.546-12.726-0.314-22.533 3.133-26.43 2.235-2.525 3.676-3.821 7.298-5.912 0.708-0.409 1.775-1.076 2.445-0.195 0.47 0.617 0.164 1.302-0.387 1.693-2.477 1.764-5.109 4.289-6.525 8.396-1.12 3.248-3.021 10.372 2.246 17.931 1.531 2.198 0.908 5.31-1.389 6.725C34.683 90.062 31.445 88.968 30.304 86.351z" fill="#5ebc67" data-fill-palette-color="accent"></path><path d="M69.696 13.649c5.546 12.726 0.314 22.533-3.133 26.43-2.234 2.526-3.675 3.821-7.297 5.913-0.708 0.408-1.775 1.076-2.446 0.195-0.47-0.618-0.163-1.303 0.388-1.694 2.477-1.763 5.109-4.288 6.525-8.396 1.12-3.249 3.021-10.372-2.246-17.932-1.532-2.198-0.908-5.309 1.388-6.724C65.318 9.938 68.556 11.032 69.696 13.649z" fill="#5ebc67" data-fill-palette-color="accent"></path></g></g><g fill="#5ebc67" data-fill-palette-color="accent"><g fill="#5ebc67" data-fill-palette-color="accent"><path d="M8.671 51.118c8.248-11.166 19.357-11.539 24.456-10.502 3.305 0.672 5.147 1.272 8.769 3.363 0.708 0.408 1.82 0.999 1.392 2.021-0.299 0.716-1.045 0.793-1.66 0.512-2.765-1.263-6.269-2.28-10.533-1.453-3.374 0.654-10.494 2.57-14.406 10.911-1.138 2.425-4.144 3.44-6.518 2.159C7.646 56.766 6.976 53.414 8.671 51.118z" fill="#5ebc67" data-fill-palette-color="accent"></path><path d="M91.329 48.882C83.081 60.047 71.971 60.42 66.874 59.383c-3.305-0.672-5.147-1.272-8.769-3.363-0.708-0.408-1.82-0.999-1.393-2.021 0.3-0.716 1.046-0.793 1.66-0.512 2.766 1.264 6.269 2.28 10.534 1.453 3.373-0.654 10.493-2.569 14.406-10.91 1.138-2.426 4.144-3.441 6.517-2.16C92.354 43.233 93.025 46.585 91.329 48.882z" fill="#5ebc67" data-fill-palette-color="accent"></path></g><g fill="#5ebc67" data-fill-palette-color="accent"><path d="M51.119 91.329C39.953 83.081 39.58 71.972 40.617 66.874c0.673-3.305 1.272-5.147 3.364-8.77 0.409-0.708 1-1.819 2.02-1.392 0.716 0.3 0.793 1.045 0.512 1.66-1.263 2.765-2.28 6.269-1.453 10.533 0.654 3.374 2.57 10.493 10.911 14.406 2.425 1.138 3.44 4.144 2.159 6.518C56.766 92.354 53.415 93.025 51.119 91.329z" fill="#5ebc67" data-fill-palette-color="accent"></path><path d="M48.882 8.672c11.166 8.247 11.538 19.356 10.501 24.455-0.672 3.305-1.271 5.147-3.362 8.77-0.409 0.707-1 1.819-2.021 1.392-0.716-0.3-0.792-1.046-0.511-1.661 1.263-2.765 2.28-6.268 1.453-10.533-0.655-3.373-2.57-10.492-10.911-14.406-2.426-1.137-3.44-4.144-2.159-6.517C43.234 7.646 46.585 6.976 48.882 8.672z" fill="#5ebc67" data-fill-palette-color="accent"></path></g></g></g></svg></g></svg></g></svg></g><defs></defs></svg><rect width="395.52" height="60.52714256384461" fill="none" stroke="none" visibility="hidden"></rect></g></svg></g></svg>