<svg id="Layer_1" data-name="Layer 1" xmlns="http://www.w3.org/2000/svg" viewBox="0 0 248.75 416.64"><defs><style>.cls-1{fill:#e6e7e7;}.cls-2{fill:#010101;}.cls-3{fill:none;}</style></defs><line class="cls-1" x1="121.69" y1="404.33" x2="93.35" y2="404.33"/><path class="cls-2" d="M257.65,483.53H229.28a.83.83,0,0,1-.6-.26.86.86,0,0,1-.25-.61l4.73-253.54c0-.47,0-2.27.51-2.27l7.49,2.2c.46,0,1.36.84,12.3-1.67l5,255.05a.69.69,0,0,1,0,.25A.85.85,0,0,1,257.65,483.53ZM252,227.33l-8.45,1.87-8.72-1.27q-2.42,126.95-4.85,253.9h26.93" transform="translate(-135.93 -66.89)"/><path class="cls-3" d="M262.58,214.5a19.58,19.58,0,1,1-14.41-23.65A19.57,19.57,0,0,1,262.58,214.5Z" transform="translate(-135.93 -66.89)"/><path class="cls-2" d="M243.57,230.31a20.43,20.43,0,1,1,19.84-15.61A20.2,20.2,0,0,1,243.57,230.31Zm0-39.17a18.74,18.74,0,0,0-4.39,37,19,19,0,0,0,4.43.53,18.74,18.74,0,0,0,0-37.48Z" transform="translate(-135.93 -66.89)"/><polygon class="cls-3" points="122.96 155.18 133.21 168.87 247.05 185.79 247.9 182.27 146.35 152.39 140.27 155.14 133.87 149.36 126.66 147.61 122.96 155.18"/><path class="cls-2" d="M383,253.53h-.13L269,236.59a.86.86,0,0,1-.56-.33l-10.24-13.68a.85.85,0,0,1-.09-.88l3.7-7.57a.84.84,0,0,1,1-.45l7.22,1.75a.93.93,0,0,1,.37.19l6,5.4,5.58-2.51a.8.8,0,0,1,.59,0l101.55,29.88a.84.84,0,0,1,.58,1l-.85,3.52A.85.85,0,0,1,383,253.53ZM269.6,235l112.73,16.76.49-2L282.34,220.18l-5.8,2.62a.83.83,0,0,1-.91-.15L269.39,217,263,215.48,259.87,222Z" transform="translate(-135.93 -66.89)"/><polygon class="cls-3" points="110.51 123.62 117.24 107.9 74.98 0.85 71.5 1.87 96.4 104.75 101.82 108.65 100.02 117.08 102.11 124.2 110.51 123.62"/><path class="cls-2" d="M238,191.94a.84.84,0,0,1-.81-.61l-2.1-7.12a1,1,0,0,1,0-.42l1.69-7.88-5-3.58a.88.88,0,0,1-.33-.49L206.61,69a.85.85,0,0,1,.58-1l3.48-1a.84.84,0,0,1,1,.51l42.26,107a.83.83,0,0,1,0,.64l-6.73,15.72a.87.87,0,0,1-.72.52l-8.4.58Zm-1.22-8,1.84,6.26,7.2-.5,6.39-14.92-41.85-106-2,.57,24.64,101.8,5.16,3.71a.89.89,0,0,1,.34.87Z" transform="translate(-135.93 -66.89)"/><polygon class="cls-3" points="89.41 150.18 72.43 152.22 0.85 242.34 3.47 244.84 80.12 171.84 80.78 165.19 88.99 162.54 94.11 157.17 89.41 150.18"/><path class="cls-2" d="M139.4,312.58a.86.86,0,0,1-.59-.24l-2.62-2.5a.85.85,0,0,1-.08-1.14l71.58-90.13a.88.88,0,0,1,.56-.31l17-2a.85.85,0,0,1,.81.36l4.7,7a.86.86,0,0,1-.09,1.06L225.53,230a.87.87,0,0,1-.35.22l-7.68,2.49-.61,6.09a.84.84,0,0,1-.26.53l-76.65,73A.82.82,0,0,1,139.4,312.58Zm-1.48-3.43,1.48,1.41,75.84-72.23.63-6.33a.85.85,0,0,1,.58-.73l8-2.58L229,224l-4-6L208.8,219.9Z" transform="translate(-135.93 -66.89)"/></svg>