<svg width="202" height="30" viewBox="0 0 202 30" fill="none" xmlns="http://www.w3.org/2000/svg">
<g clip-path="url(#clip0_10_625)">
<g clip-path="url(#clip1_10_625)">
<path d="M37.262 1.95099C37.262 0.873487 36.8568 0 36.3569 0C35.8571 0 35.4519 0.873487 35.4519 1.95099V27.9053C35.4519 28.9828 35.8571 29.8563 36.3569 29.8563C36.8568 29.8563 37.262 28.9828 37.262 27.9053V1.95099Z" fill="#181F17"/>
<g clip-path="url(#clip2_10_625)">
<g clip-path="url(#clip3_10_625)">
<g clip-path="url(#clip4_10_625)">
<g clip-path="url(#clip5_10_625)">
<path d="M42.8573 24.2624C42.5585 24.2624 42.342 24.1954 42.2078 24.0614C42.0693 23.9316 42 23.7285 42 23.4521V5.7181C42 5.31186 42.381 5.10875 43.143 5.10875H43.3639C44.1129 5.10875 44.4874 5.31186 44.4874 5.7181V22.1894H52.242C52.4411 22.1894 52.584 22.2543 52.6706 22.3841C52.7572 22.5098 52.8005 22.7171 52.8005 23.006V23.4521C52.8005 23.7285 52.7572 23.9316 52.6706 24.0614C52.584 24.1954 52.4411 24.2624 52.242 24.2624H42.8573ZM62.945 24.4132C61.3041 24.4132 59.9077 24.1661 58.756 23.6719C57.6043 23.1777 56.7319 22.4595 56.1387 21.5172C55.5499 20.5749 55.2554 19.4505 55.2554 18.1438V5.7181C55.2554 5.31186 55.63 5.10875 56.379 5.10875H56.5998C57.3532 5.10875 57.7299 5.31186 57.7299 5.7181V18.238C57.7299 19.0338 57.9572 19.7436 58.4118 20.3676C58.8664 20.9916 59.4899 21.4774 60.2823 21.825C61.0746 22.1726 61.9622 22.3464 62.945 22.3464C63.9365 22.3464 64.8285 22.1705 65.6208 21.8188C66.4131 21.4628 67.0345 20.9728 67.4847 20.3488C67.935 19.729 68.1602 19.0254 68.1602 18.238V5.7181C68.1602 5.31186 68.5347 5.10875 69.2837 5.10875H69.524C70.2644 5.10875 70.6346 5.31186 70.6346 5.7181V18.1438C70.6346 19.4505 70.338 20.5749 69.7449 21.5172C69.1517 22.4595 68.2792 23.1777 67.1275 23.6719C65.9758 24.1661 64.5817 24.4132 62.945 24.4132ZM76.6551 24.3064C76.2568 24.3064 75.9667 24.2582 75.7848 24.1619C75.6073 24.0656 75.5185 23.9148 75.5185 23.7096V5.7181C75.5185 5.31186 75.8974 5.10875 76.6551 5.10875H77.6553C78.2787 5.10875 78.6749 5.27626 78.8438 5.6113L84.1758 14.5568L84.9032 16.2718L85.6306 14.7076L90.9757 5.6113C91.1532 5.27626 91.545 5.10875 92.1512 5.10875H93.0864C93.8354 5.10875 94.21 5.31186 94.21 5.7181V23.7096C94.21 24.1075 93.8354 24.3064 93.0864 24.3064H92.8916C92.4932 24.3064 92.2031 24.2582 92.0213 24.1619C91.8438 24.0656 91.755 23.9148 91.755 23.7096V9.03497L91.7031 9.15433L86.0917 18.5898C86.0181 18.7113 85.9337 18.7992 85.8384 18.8537C85.7432 18.9123 85.622 18.9416 85.4747 18.9416H84.3447C84.0633 18.9416 83.8533 18.8244 83.7147 18.5898L77.9735 8.87792V23.7096C77.9735 24.1075 77.599 24.3064 76.8499 24.3064H76.6551ZM107.017 24.4132C104.199 24.4132 102.049 23.5861 100.568 21.9318C99.0874 20.2734 98.347 17.8506 98.347 14.6636C98.347 11.4807 99.0852 9.07475 100.562 7.44563C102.034 5.81651 104.186 5.00195 107.017 5.00195C109.862 5.00195 112.025 5.81651 113.505 7.44563C114.986 9.07475 115.727 11.4807 115.727 14.6636C115.727 17.8506 114.986 20.2734 113.505 21.9318C112.025 23.5861 109.862 24.4132 107.017 24.4132ZM107.017 22.3464C109.005 22.3464 110.529 21.6889 111.589 20.3739C112.646 19.0589 113.174 17.1554 113.174 14.6636C113.174 12.1676 112.648 10.2788 111.596 8.99728C110.544 7.71157 109.018 7.06872 107.017 7.06872C105.03 7.06872 103.515 7.71157 102.471 8.99728C101.423 10.2788 100.899 12.1676 100.899 14.6636C100.899 17.168 101.423 19.0735 102.471 20.3802C103.515 21.691 105.03 22.3464 107.017 22.3464ZM124.221 24.4132C123.187 24.4132 122.221 24.3043 121.325 24.0865C120.433 23.8646 119.721 23.5986 119.188 23.2887C118.656 22.9788 118.389 22.694 118.389 22.4344C118.389 22.292 118.45 22.1035 118.571 21.869C118.692 21.6345 118.831 21.4251 118.987 21.2408C119.147 21.0565 119.275 20.9644 119.37 20.9644C119.457 20.9644 119.641 21.0461 119.922 21.2094C120.58 21.5361 121.232 21.8083 121.877 22.0261C122.522 22.2396 123.304 22.3464 124.221 22.3464C124.94 22.3464 125.579 22.2124 126.137 21.9444C126.7 21.6805 127.138 21.3057 127.449 20.8199C127.761 20.3341 127.917 19.775 127.917 19.1426C127.917 18.4642 127.729 17.903 127.352 17.4591C126.979 17.0151 126.525 16.6634 125.988 16.4037C125.455 16.1441 124.683 15.8195 123.669 15.43C122.57 15.0196 121.699 14.6385 121.059 14.2867C120.418 13.9349 119.874 13.4219 119.428 12.7476C118.978 12.0692 118.753 11.1729 118.753 10.0589C118.753 9.08732 119.011 8.21622 119.526 7.44563C120.045 6.67505 120.781 6.07407 121.734 5.64271C122.682 5.21554 123.775 5.00195 125.014 5.00195C125.577 5.00195 126.217 5.07524 126.936 5.22182C127.655 5.3684 128.27 5.56942 128.781 5.82489C129.292 6.08036 129.547 6.36304 129.547 6.67295C129.547 6.80278 129.493 6.98286 129.385 7.2132C129.272 7.44354 129.142 7.65085 128.995 7.83512C128.848 8.01939 128.731 8.11152 128.644 8.11152C128.549 8.11152 128.358 8.03614 128.073 7.88537C127.596 7.63828 127.127 7.44145 126.663 7.29487C126.2 7.1441 125.635 7.06872 124.968 7.06872C123.877 7.06872 122.996 7.34094 122.325 7.88537C121.654 8.42562 121.318 9.18155 121.318 10.1532C121.318 10.7353 121.468 11.2148 121.766 11.5917C122.061 11.9728 122.435 12.2744 122.89 12.4963C123.345 12.7225 123.979 12.9842 124.793 13.2816C124.845 13.2899 124.966 13.3297 125.157 13.4009C126.278 13.8239 127.196 14.2322 127.91 14.6259C128.62 15.0196 129.227 15.5829 129.729 16.3158C130.231 17.0528 130.482 17.9951 130.482 19.1426C130.482 20.2148 130.227 21.1487 129.716 21.9444C129.205 22.7443 128.475 23.3557 127.527 23.7787C126.583 24.2017 125.481 24.4132 124.221 24.4132ZM135.301 24.3064C134.543 24.3064 134.165 24.1075 134.165 23.7096V5.7181C134.165 5.31186 134.543 5.10875 135.301 5.10875H135.529C136.278 5.10875 136.652 5.31186 136.652 5.7181V13.4323H146.862V5.7181C146.862 5.31186 147.236 5.10875 147.985 5.10875H148.212C148.961 5.10875 149.336 5.31186 149.336 5.7181V23.7096C149.336 23.9148 149.245 24.0656 149.063 24.1619C148.886 24.2582 148.602 24.3064 148.212 24.3064H147.985C147.595 24.3064 147.312 24.2582 147.134 24.1619C146.952 24.0656 146.862 23.9148 146.862 23.7096V15.5054H136.652V23.7096C136.652 24.1075 136.278 24.3064 135.529 24.3064H135.301ZM162.384 24.4132C159.561 24.4132 157.409 23.5861 155.928 21.9318C154.452 20.2734 153.713 17.8506 153.713 14.6636C153.713 11.4807 154.449 9.07475 155.921 7.44563C157.398 5.81651 159.552 5.00195 162.384 5.00195C165.228 5.00195 167.391 5.81651 168.872 7.44563C170.348 9.07475 171.086 11.4807 171.086 14.6636C171.086 17.8506 170.348 20.2734 168.872 21.9318C167.391 23.5861 165.228 24.4132 162.384 24.4132ZM162.384 22.3464C164.371 22.3464 165.893 21.6889 166.949 20.3739C168.006 19.0589 168.534 17.1554 168.534 14.6636C168.534 12.1676 168.008 10.2788 166.956 8.99728C165.904 7.71157 164.38 7.06872 162.384 7.06872C160.396 7.06872 158.879 7.71157 157.831 8.99728C156.787 10.2788 156.266 12.1676 156.266 14.6636C156.266 17.168 156.787 19.0735 157.831 20.3802C158.879 21.691 160.396 22.3464 162.384 22.3464ZM179.588 24.4132C178.549 24.4132 177.583 24.3043 176.691 24.0865C175.799 23.8646 175.087 23.5986 174.554 23.2887C174.018 22.9788 173.749 22.694 173.749 22.4344C173.749 22.292 173.81 22.1035 173.931 21.869C174.052 21.6345 174.193 21.4251 174.353 21.2408C174.513 21.0565 174.641 20.9644 174.736 20.9644C174.819 20.9644 175.003 21.0461 175.288 21.2094C175.942 21.5361 176.592 21.8083 177.237 22.0261C177.882 22.2396 178.666 22.3464 179.588 22.3464C180.306 22.3464 180.945 22.2124 181.504 21.9444C182.067 21.6805 182.504 21.3057 182.816 20.8199C183.127 20.3341 183.283 19.775 183.283 19.1426C183.283 18.4642 183.095 17.903 182.718 17.4591C182.341 17.0151 181.887 16.6634 181.354 16.4037C180.822 16.1441 180.047 15.8195 179.029 15.43C177.929 15.0196 177.061 14.6385 176.425 14.2867C175.784 13.9349 175.239 13.4219 174.788 12.7476C174.338 12.0692 174.113 11.1729 174.113 10.0589C174.113 9.08732 174.373 8.21622 174.892 7.44563C175.412 6.67505 176.146 6.07407 177.094 5.64271C178.046 5.21554 179.142 5.00195 180.38 5.00195C180.939 5.00195 181.577 5.07524 182.296 5.22182C183.015 5.3684 183.632 5.56942 184.147 5.82489C184.658 6.08036 184.913 6.36304 184.913 6.67295C184.913 6.80278 184.857 6.98286 184.744 7.2132C184.636 7.44354 184.508 7.65085 184.361 7.83512C184.21 8.01939 184.093 8.11152 184.011 8.11152C183.915 8.11152 183.725 8.03614 183.439 7.88537C182.963 7.63828 182.493 7.44145 182.03 7.29487C181.562 7.1441 180.995 7.06872 180.328 7.06872C179.241 7.06872 178.362 7.34094 177.691 7.88537C177.02 8.42562 176.685 9.18155 176.685 10.1532C176.685 10.7353 176.832 11.2148 177.126 11.5917C177.425 11.9728 177.802 12.2744 178.256 12.4963C178.711 12.7225 179.345 12.9842 180.159 13.2816C180.211 13.2899 180.332 13.3297 180.523 13.4009C181.644 13.8239 182.56 14.2322 183.27 14.6259C183.985 15.0196 184.593 15.5829 185.095 16.3158C185.597 17.0528 185.849 17.9951 185.849 19.1426C185.849 20.2148 185.593 21.1487 185.082 21.9444C184.567 22.7443 183.837 23.3557 182.893 23.7787C181.945 24.2017 180.843 24.4132 179.588 24.4132ZM194.473 24.3064C194.084 24.3064 193.798 24.2582 193.616 24.1619C193.439 24.0656 193.35 23.9148 193.35 23.7096V7.25089H187.927C187.723 7.25089 187.58 7.18598 187.498 7.05615C187.412 6.92214 187.368 6.71693 187.368 6.44052V5.9945C187.368 5.70972 187.412 5.50242 187.498 5.37259C187.58 5.24695 187.723 5.18413 187.927 5.18413H201.15C201.349 5.18413 201.492 5.24695 201.578 5.37259C201.661 5.50242 201.702 5.70972 201.702 5.9945V6.44052C201.702 6.71693 201.661 6.92214 201.578 7.05615C201.492 7.18598 201.349 7.25089 201.15 7.25089H195.837V23.7096C195.837 24.1075 195.456 24.3064 194.694 24.3064H194.473Z" fill="#181F17"/>
</g>
</g>
</g>
</g>
<g clip-path="url(#clip6_10_625)">
<g clip-path="url(#clip7_10_625)">
<path d="M7.49677 2.54586C12.5087 3.09412 14.6444 6.41001 15.2439 8.14369C15.6327 9.26761 15.7788 9.93395 15.7788 11.4033C15.7788 11.6905 15.7948 12.1329 15.3958 12.1821C15.116 12.2169 14.9565 12.0033 14.9333 11.7667C14.8283 10.7033 14.5122 9.45809 13.477 8.305C12.6584 7.39335 10.7621 5.56302 7.42665 5.8375C6.45689 5.91763 5.59105 5.181 5.56307 4.23351C5.53328 3.22626 6.46597 2.43305 7.49677 2.54586Z" fill="#181F17"/>
<path d="M23.2168 27.3103C18.2048 26.7617 16.0695 23.4461 15.4696 21.7121C15.0808 20.5882 14.9348 19.9219 14.9348 18.4525C14.9348 18.1653 14.9188 17.7229 15.3177 17.6737C15.5975 17.6389 15.757 17.8525 15.7803 18.0891C15.8853 19.1525 16.2014 20.3977 17.2365 21.5508C18.0552 22.4625 19.9514 24.2928 23.2869 24.0183C24.2567 23.9382 25.1225 24.6748 25.1505 25.6223C25.1803 26.6299 24.2476 27.4231 23.2168 27.3103Z" fill="#181F17"/>
<path d="M2.55538 22.5314C3.12219 17.6836 6.55031 15.6178 8.34267 15.0379C9.50464 14.6619 10.1935 14.5206 11.713 14.5206C12.0099 14.5206 12.4673 14.5048 12.5182 14.891C12.5538 15.1616 12.3332 15.3159 12.0887 15.3384C10.9892 15.4396 9.70193 15.7457 8.51017 16.747C7.56767 17.5392 5.67539 19.3734 5.95916 22.5993C6.042 23.5373 5.28044 24.3748 4.30087 24.4018C3.25881 24.4303 2.43875 23.5285 2.55538 22.5314Z" fill="#181F17"/>
<path d="M28.1582 7.32564C27.5914 12.1735 24.1633 14.2393 22.371 14.8192C21.209 15.1952 20.5201 15.3365 19.0006 15.3365C18.7038 15.3365 18.2463 15.3523 18.1954 14.9661C18.1598 14.6954 18.3804 14.5412 18.6249 14.5187C19.7244 14.4175 21.0117 14.1113 22.2035 13.1101C23.146 12.3179 25.0382 10.4837 24.7545 7.25781C24.6716 6.3198 25.4332 5.48231 26.4128 5.45525C27.4548 5.42678 28.2749 6.32859 28.1582 7.32564Z" fill="#181F17"/>
<path d="M2.14913 8.00617C6.773 6.05705 10.3363 7.89581 11.7522 9.10725C12.67 9.89238 13.1405 10.3992 13.9003 11.6717C14.0489 11.9206 14.2916 12.2956 13.9711 12.5314C13.747 12.6966 13.4981 12.589 13.356 12.3954C12.7154 11.5248 11.7976 10.5998 10.3054 10.1022C9.12491 9.70857 6.53647 9.04047 3.79034 10.8915C2.99171 11.4296 1.86136 11.2103 1.34723 10.4034C0.800404 9.5448 1.19826 8.40682 2.14913 8.00617Z" fill="#181F17"/>
<path d="M28.5644 21.8501C23.9405 23.7992 20.3772 21.9605 18.9613 20.749C18.0435 19.9639 17.573 19.4571 16.8132 18.1845C16.6646 17.9357 16.4219 17.5607 16.742 17.3249C16.9666 17.1597 17.2151 17.2673 17.3575 17.4609C17.9981 18.3314 18.9159 19.2564 20.4081 19.7541C21.5886 20.1477 24.1771 20.8158 26.9232 18.9651C27.7218 18.4267 28.8522 18.646 29.3663 19.4529C29.9131 20.3115 29.5153 21.4495 28.5644 21.8501Z" fill="#181F17"/>
<path d="M8.20018 27.7037C6.18509 23.2312 8.08609 19.7846 9.33853 18.415C10.1506 17.5276 10.6742 17.0721 11.9902 16.3372C12.2474 16.1935 12.6351 15.9591 12.8786 16.2687C13.0493 16.4855 12.9381 16.7263 12.7379 16.8637C11.8379 17.4836 10.8816 18.371 10.3671 19.8144C9.9602 20.9559 9.26949 23.4596 11.1832 26.1162C11.7395 26.8887 11.5131 27.9824 10.6785 28.4797C9.79125 29.0079 8.61475 28.6234 8.20018 27.7037Z" fill="#181F17"/>
<path d="M22.5129 2.15305C24.528 6.62554 22.627 10.0722 21.3745 11.4417C20.5628 12.3295 20.0393 12.7846 18.7232 13.5198C18.466 13.6632 18.0783 13.898 17.8345 13.5884C17.6637 13.3712 17.7753 13.1304 17.9755 12.993C18.8755 12.3734 19.8318 11.486 20.3463 10.0423C20.7532 8.90045 21.4439 6.3971 19.5302 3.74017C18.9736 2.9677 19.2003 1.87435 20.0345 1.37706C20.9222 0.848834 22.0987 1.23332 22.5129 2.15305Z" fill="#181F17"/>
<path d="M0.340106 15.3215C3.33694 11.3973 7.37329 11.2662 9.22597 11.6306C10.4268 11.8668 11.0961 12.0777 12.4121 12.8126C12.6693 12.9559 13.0734 13.1637 12.9179 13.5228C12.8092 13.7745 12.5382 13.8015 12.3147 13.7028C11.3101 13.2589 10.0369 12.9015 8.48766 13.1921C7.26175 13.422 4.67476 14.0953 3.25337 17.0267C2.83989 17.879 1.74769 18.2357 0.885117 17.7855C-0.0323184 17.3065 -0.275757 16.1284 0.340106 15.3215Z" fill="#181F17"/>
<path d="M30.3731 14.5356C27.3763 18.4595 23.3396 18.5905 21.4876 18.2261C20.2868 17.9899 19.6175 17.7791 18.3015 17.0442C18.0442 16.9008 17.6402 16.6931 17.7953 16.3339C17.9043 16.0823 18.1754 16.0552 18.3985 16.154C19.4035 16.5982 20.6763 16.9553 22.2259 16.6646C23.4515 16.4348 26.0384 15.7618 27.4602 12.8304C27.8737 11.9778 28.9659 11.621 29.8281 12.0712C30.7455 12.5503 30.9893 13.7283 30.3731 14.5356Z" fill="#181F17"/>
<path d="M15.7632 29.4533C11.7062 26.5545 11.5706 22.6503 11.9474 20.8587C12.192 19.6971 12.4096 19.0498 13.1697 17.7765C13.3183 17.5277 13.533 17.1372 13.9037 17.2873C14.1638 17.3927 14.1918 17.6545 14.0897 17.8707C13.6308 18.8424 13.2613 20.0739 13.5617 21.5724C13.7994 22.7582 14.4955 25.2602 17.5262 26.6354C18.4073 27.0353 18.7761 28.0918 18.3106 28.9261C17.815 29.8135 16.5975 30.0493 15.7632 29.4533Z" fill="#181F17"/>
<path d="M14.9504 0.403925C19.0075 3.30229 19.1426 7.2065 18.7658 8.99852C18.5217 10.16 18.304 10.8074 17.5443 12.0807C17.3957 12.3292 17.1809 12.72 16.81 12.5699C16.5498 12.4645 16.5222 12.2023 16.6243 11.9862C17.0832 11.0144 17.4527 9.7833 17.1522 8.28438C16.9143 7.09896 16.2185 4.59702 13.1878 3.22146C12.3064 2.82187 11.9379 1.76507 12.4034 0.931093C12.8982 0.043342 14.1158 -0.192126 14.9504 0.403925Z" fill="#181F17"/>
</g>
</g>
</g>
</g>
<defs>
<clipPath id="clip0_10_625">
<rect width="201.702" height="29.8563" fill="white"/>
</clipPath>
<clipPath id="clip1_10_625">
<rect width="201.702" height="29.8563" fill="white"/>
</clipPath>
<clipPath id="clip2_10_625">
<rect width="159.702" height="29.7078" fill="white" transform="translate(42.0004 0.074707)"/>
</clipPath>
<clipPath id="clip3_10_625">
<rect width="159.702" height="29.7078" fill="white" transform="translate(42.0004 0.074707)"/>
</clipPath>
<clipPath id="clip4_10_625">
<rect width="159.702" height="19.4146" fill="white" transform="translate(42 5)"/>
</clipPath>
<clipPath id="clip5_10_625">
<rect width="159.702" height="19.4146" fill="white" transform="translate(42 5)"/>
</clipPath>
<clipPath id="clip6_10_625">
<rect width="30.7134" height="29.7078" fill="white" transform="translate(0 0.074707)"/>
</clipPath>
<clipPath id="clip7_10_625">
<rect width="30.7134" height="29.7078" fill="white" transform="translate(0 0.074707)"/>
</clipPath>
</defs>
</svg>
