<svg width="150" height="24" viewBox="0 0 150 24" fill="none" xmlns="http://www.w3.org/2000/svg">
<g clip-path="url(#clip0_10_926)">
<g clip-path="url(#clip1_10_926)">
<g clip-path="url(#clip2_10_926)">
<path d="M27.7804 1.58733C27.7804 0.760121 27.4795 0.0895386 27.1083 0.0895386C26.7372 0.0895386 26.4363 0.760121 26.4363 1.58733V21.5127C26.4363 22.3399 26.7372 23.0105 27.1083 23.0105C27.4795 23.0105 27.7804 22.3399 27.7804 21.5127V1.58733Z" fill="#152232"/>
<g clip-path="url(#clip3_10_926)">
<g clip-path="url(#clip4_10_926)">
<g clip-path="url(#clip5_10_926)">
<g clip-path="url(#clip6_10_926)">
<path d="M31.9357 14.9344C31.7138 14.9344 31.5531 14.883 31.4534 14.7801C31.3505 14.6804 31.2991 14.5245 31.2991 14.3123V0.697768C31.2991 0.3859 31.582 0.229966 32.1479 0.229966H32.3118C32.8681 0.229966 33.1462 0.3859 33.1462 0.697768V13.3429H38.9045C39.0524 13.3429 39.1585 13.3927 39.2228 13.4924C39.2871 13.5889 39.3192 13.748 39.3192 13.9699V14.3123C39.3192 14.5245 39.2871 14.6804 39.2228 14.7801C39.1585 14.883 39.0524 14.9344 38.9045 14.9344H31.9357ZM46.8523 15.0502C45.6338 15.0502 44.5969 14.8605 43.7417 14.4811C42.8864 14.1017 42.2386 13.5503 41.7981 12.8269C41.3609 12.1035 41.1422 11.2402 41.1422 10.2371V0.697768C41.1422 0.3859 41.4203 0.229966 41.9766 0.229966H42.1405C42.7 0.229966 42.9797 0.3859 42.9797 0.697768V10.3094C42.9797 10.9203 43.1485 11.4653 43.4861 11.9443C43.8237 12.4234 44.2866 12.7963 44.875 13.0632C45.4634 13.3301 46.1225 13.4635 46.8523 13.4635C47.5886 13.4635 48.2509 13.3284 48.8393 13.0584C49.4276 12.7851 49.889 12.4089 50.2234 11.9299C50.5578 11.454 50.725 10.9139 50.725 10.3094V0.697768C50.725 0.3859 51.0031 0.229966 51.5593 0.229966H51.7377C52.2875 0.229966 52.5624 0.3859 52.5624 0.697768V10.2371C52.5624 11.2402 52.3422 12.1035 51.9017 12.8269C51.4612 13.5503 50.8134 14.1017 49.9581 14.4811C49.1029 14.8605 48.0676 15.0502 46.8523 15.0502ZM57.0331 14.9682C56.7373 14.9682 56.5219 14.9312 56.3868 14.8572C56.255 14.7833 56.1891 14.6676 56.1891 14.51V0.697768C56.1891 0.3859 56.4704 0.229966 57.0331 0.229966H57.7758C58.2387 0.229966 58.5329 0.358571 58.6583 0.615782L62.6178 7.48332L63.1579 8.79992L63.698 7.59907L67.6671 0.615782C67.799 0.358571 68.0899 0.229966 68.54 0.229966H69.2345C69.7907 0.229966 70.0688 0.3859 70.0688 0.697768V14.51C70.0688 14.8154 69.7907 14.9682 69.2345 14.9682H69.0898C68.794 14.9682 68.5786 14.9312 68.4436 14.8572C68.3118 14.7833 68.2459 14.6676 68.2459 14.51V3.24416L68.2073 3.33579L64.0405 10.5795C63.9858 10.6727 63.9231 10.7403 63.8524 10.7821C63.7816 10.8271 63.6916 10.8496 63.5823 10.8496H62.7431C62.5342 10.8496 62.3782 10.7596 62.2753 10.5795L58.0121 3.12359V14.51C58.0121 14.8154 57.734 14.9682 57.1777 14.9682H57.0331ZM79.5792 15.0502C77.4862 15.0502 75.8899 14.4152 74.7903 13.1452C73.6907 11.872 73.1409 10.012 73.1409 7.56531C73.1409 5.1218 73.6891 3.2747 74.7855 2.02401C75.8786 0.773324 77.4765 0.14798 79.5792 0.14798C81.6916 0.14798 83.2975 0.773324 84.3971 2.02401C85.4967 3.2747 86.0465 5.1218 86.0465 7.56531C86.0465 10.012 85.4967 11.872 84.3971 13.1452C83.2975 14.4152 81.6916 15.0502 79.5792 15.0502ZM79.5792 13.4635C81.055 13.4635 82.1867 12.9587 82.9744 11.9492C83.7589 10.9396 84.1512 9.47832 84.1512 7.56531C84.1512 5.64909 83.7605 4.19906 82.9792 3.21522C82.198 2.22818 81.0646 1.73465 79.5792 1.73465C78.1035 1.73465 76.9782 2.22818 76.2033 3.21522C75.4253 4.19906 75.0362 5.64909 75.0362 7.56531C75.0362 9.48796 75.4253 10.9509 76.2033 11.954C76.9782 12.9603 78.1035 13.4635 79.5792 13.4635ZM92.3546 15.0502C91.5862 15.0502 90.8692 14.9666 90.2037 14.7994C89.5413 14.629 89.0125 14.4248 88.617 14.1869C88.2215 13.949 88.0238 13.7303 88.0238 13.531C88.0238 13.4217 88.0688 13.277 88.1588 13.097C88.2489 12.9169 88.3517 12.7562 88.4675 12.6147C88.5864 12.4732 88.6813 12.4025 88.752 12.4025C88.8163 12.4025 88.953 12.4652 89.162 12.5906C89.6507 12.8414 90.1345 13.0503 90.6136 13.2175C91.0927 13.3815 91.673 13.4635 92.3546 13.4635C92.8883 13.4635 93.3625 13.3606 93.7773 13.1548C94.1953 12.9523 94.52 12.6645 94.7515 12.2916C94.983 11.9186 95.0987 11.4894 95.0987 11.0039C95.0987 10.483 94.9589 10.0522 94.6791 9.71141C94.4026 9.37061 94.065 9.10054 93.6664 8.9012C93.2709 8.70186 92.697 8.45269 91.9447 8.15368C91.128 7.83859 90.4818 7.54602 90.0059 7.27595C89.5301 7.00587 89.1266 6.61202 88.7954 6.09438C88.4611 5.57353 88.2939 4.88549 88.2939 4.03026C88.2939 3.28435 88.4852 2.6156 88.8678 2.02401C89.2536 1.43243 89.8002 0.971056 90.5075 0.639896C91.2116 0.311952 92.0234 0.14798 92.943 0.14798C93.3609 0.14798 93.8368 0.204245 94.3705 0.316775C94.9042 0.429305 95.3607 0.583631 95.7401 0.779755C96.1195 0.975878 96.3092 1.1929 96.3092 1.43082C96.3092 1.53049 96.269 1.66874 96.1886 1.84557C96.1051 2.02241 96.0086 2.18156 95.8993 2.32302C95.79 2.46449 95.7032 2.53522 95.6389 2.53522C95.5681 2.53522 95.4267 2.47735 95.2145 2.3616C94.8608 2.17191 94.512 2.0208 94.1679 1.90827C93.8239 1.79252 93.4043 1.73465 92.9092 1.73465C92.099 1.73465 91.4447 1.94364 90.9464 2.3616C90.448 2.77636 90.1988 3.35669 90.1988 4.1026C90.1988 4.54951 90.3098 4.91764 90.5316 5.207C90.7502 5.49958 91.0283 5.73107 91.3659 5.90147C91.7035 6.07509 92.1745 6.27604 92.779 6.50431C92.8176 6.51074 92.9076 6.54129 93.0491 6.59594C93.8818 6.92067 94.5634 7.23415 95.0939 7.53637C95.6212 7.8386 96.0713 8.27103 96.4443 8.83368C96.8172 9.39955 97.0037 10.123 97.0037 11.0039C97.0037 11.827 96.814 12.544 96.4346 13.1548C96.0552 13.7689 95.5135 14.2383 94.8094 14.5631C94.1085 14.8878 93.2902 15.0502 92.3546 15.0502ZM100.582 14.9682C100.019 14.9682 99.7382 14.8154 99.7382 14.51V0.697768C99.7382 0.3859 100.019 0.229966 100.582 0.229966H100.751C101.307 0.229966 101.585 0.3859 101.585 0.697768V6.62006H109.167V0.697768C109.167 0.3859 109.445 0.229966 110.001 0.229966H110.17C110.726 0.229966 111.004 0.3859 111.004 0.697768V14.51C111.004 14.6676 110.937 14.7833 110.801 14.8572C110.67 14.9312 110.459 14.9682 110.17 14.9682H110.001C109.712 14.9682 109.501 14.9312 109.369 14.8572C109.234 14.7833 109.167 14.6676 109.167 14.51V8.21155H101.585V14.51C101.585 14.8154 101.307 14.9682 100.751 14.9682H100.582ZM120.693 15.0502C118.597 15.0502 116.999 14.4152 115.899 13.1452C114.803 11.872 114.255 10.012 114.255 7.56531C114.255 5.1218 114.801 3.2747 115.894 2.02401C116.991 0.773324 118.59 0.14798 120.693 0.14798C122.805 0.14798 124.411 0.773324 125.511 2.02401C126.607 3.2747 127.155 5.1218 127.155 7.56531C127.155 10.012 126.607 11.872 125.511 13.1452C124.411 14.4152 122.805 15.0502 120.693 15.0502ZM120.693 13.4635C122.169 13.4635 123.299 12.9587 124.083 11.9492C124.868 10.9396 125.26 9.47832 125.26 7.56531C125.26 5.64909 124.869 4.19906 124.088 3.21522C123.307 2.22818 122.175 1.73465 120.693 1.73465C119.217 1.73465 118.09 2.22818 117.312 3.21522C116.537 4.19906 116.15 5.64909 116.15 7.56531C116.15 9.48796 116.537 10.9509 117.312 11.954C118.09 12.9603 119.217 13.4635 120.693 13.4635ZM133.468 15.0502C132.697 15.0502 131.98 14.9666 131.317 14.7994C130.655 14.629 130.126 14.4248 129.731 14.1869C129.332 13.949 129.133 13.7303 129.133 13.531C129.133 13.4217 129.178 13.277 129.268 13.097C129.358 12.9169 129.462 12.7562 129.581 12.6147C129.7 12.4732 129.795 12.4025 129.866 12.4025C129.927 12.4025 130.063 12.4652 130.276 12.5906C130.761 12.8414 131.243 13.0503 131.722 13.2175C132.201 13.3815 132.783 13.4635 133.468 13.4635C134.002 13.4635 134.476 13.3606 134.891 13.1548C135.309 12.9523 135.634 12.6645 135.865 12.2916C136.097 11.9186 136.212 11.4894 136.212 11.0039C136.212 10.483 136.072 10.0522 135.793 9.71141C135.513 9.37061 135.175 9.10054 134.78 8.9012C134.385 8.70186 133.809 8.45269 133.053 8.15368C132.237 7.83859 131.592 7.54602 131.12 7.27595C130.644 7.00587 130.239 6.61202 129.904 6.09438C129.57 5.57353 129.403 4.88549 129.403 4.03026C129.403 3.28435 129.596 2.6156 129.981 2.02401C130.367 1.43243 130.912 0.971056 131.616 0.639896C132.324 0.311952 133.137 0.14798 134.057 0.14798C134.471 0.14798 134.946 0.204245 135.479 0.316775C136.013 0.429305 136.471 0.583631 136.854 0.779755C137.233 0.975878 137.423 1.1929 137.423 1.43082C137.423 1.53049 137.381 1.66874 137.297 1.84557C137.217 2.02241 137.122 2.18156 137.013 2.32302C136.9 2.46449 136.814 2.53522 136.752 2.53522C136.682 2.53522 136.54 2.47735 136.328 2.3616C135.974 2.17191 135.626 2.0208 135.282 1.90827C134.934 1.79252 134.513 1.73465 134.018 1.73465C133.211 1.73465 132.558 1.94364 132.06 2.3616C131.562 2.77636 131.312 3.35669 131.312 4.1026C131.312 4.54951 131.422 4.91764 131.64 5.207C131.862 5.49958 132.142 5.73107 132.48 5.90147C132.817 6.07509 133.288 6.27604 133.893 6.50431C133.931 6.51074 134.021 6.54129 134.163 6.59594C134.995 6.92067 135.675 7.23415 136.203 7.53637C136.733 7.8386 137.185 8.27103 137.558 8.83368C137.931 9.39955 138.117 10.123 138.117 11.0039C138.117 11.827 137.928 12.544 137.548 13.1548C137.166 13.7689 136.624 14.2383 135.923 14.5631C135.219 14.8878 134.401 15.0502 133.468 15.0502ZM144.522 14.9682C144.232 14.9682 144.02 14.9312 143.885 14.8572C143.753 14.7833 143.688 14.6676 143.688 14.51V1.87451H139.661C139.509 1.87451 139.403 1.82468 139.342 1.72501C139.278 1.62212 139.246 1.46458 139.246 1.25238V0.909968C139.246 0.691338 139.278 0.532189 139.342 0.43252C139.403 0.336066 139.509 0.287838 139.661 0.287838H149.48C149.627 0.287838 149.734 0.336066 149.798 0.43252C149.859 0.532189 149.89 0.691338 149.89 0.909968V1.25238C149.89 1.46458 149.859 1.62212 149.798 1.72501C149.734 1.82468 149.627 1.87451 149.48 1.87451H145.535V14.51C145.535 14.8154 145.252 14.9682 144.686 14.9682H144.522Z" fill="#152232"/>
</g>
</g>
<g clip-path="url(#clip7_10_926)">
<g clip-path="url(#clip8_10_926)">
<path d="M31.7909 18.809V22.0309H31.3033V18.809H31.7909ZM33.0003 18.6512V22.0309H32.5271V18.6512H33.0003ZM34.1715 18.6512V22.0309H33.6973V18.6512H34.1715ZM36.8236 19.6073V22.0309H36.3551V21.615C36.2276 21.9114 35.9759 22.0596 35.5998 22.0596C35.3608 22.0596 35.1712 21.9885 35.031 21.8464C34.8908 21.7049 34.8207 21.5098 34.8207 21.2612V19.6073H35.2939V21.1465C35.2939 21.3122 35.3347 21.4388 35.4163 21.5261C35.4972 21.614 35.6094 21.658 35.7528 21.658C35.9345 21.658 36.0804 21.5943 36.1907 21.4668C36.3003 21.3393 36.3551 21.1593 36.3551 20.9266V19.6073H36.8236ZM40.8151 20.4008V22.0309H40.3466V20.5012C40.3466 20.1538 40.2064 19.9801 39.926 19.9801C39.7858 19.9801 39.6608 20.0423 39.5512 20.1666C39.4409 20.2909 39.3858 20.4741 39.3858 20.7163V22.0309H38.9173V20.5012C38.9173 20.1538 38.7755 19.9801 38.4919 19.9801C38.3549 19.9801 38.2306 20.0423 38.119 20.1666C38.0075 20.2909 37.9517 20.4741 37.9517 20.7163V22.0309H37.4833V19.6073H37.9517V19.9945C38.0888 19.714 38.3166 19.5738 38.6353 19.5738C38.9986 19.5738 39.2312 19.73 39.3332 20.0423C39.4001 19.8925 39.4973 19.7768 39.6248 19.6952C39.7523 19.6143 39.8957 19.5738 40.055 19.5738C40.3036 19.5738 40.4926 19.6471 40.622 19.7937C40.7507 19.9403 40.8151 20.1427 40.8151 20.4008ZM41.9432 19.6073V22.0309H41.47V19.6073H41.9432ZM42.0006 18.8663C42.0006 18.946 41.9719 19.0145 41.9146 19.0719C41.8572 19.1293 41.7871 19.1579 41.7042 19.1579C41.6214 19.1579 41.5519 19.1299 41.4958 19.0738C41.4404 19.0183 41.4126 18.9492 41.4126 18.8663C41.4126 18.7835 41.4404 18.7134 41.4958 18.656C41.5519 18.5986 41.6214 18.57 41.7042 18.57C41.7871 18.57 41.8572 18.5986 41.9146 18.656C41.9719 18.7134 42.0006 18.7835 42.0006 18.8663ZM44.625 20.3912V22.0309H44.1565V20.5012C44.1565 20.3323 44.1141 20.2032 44.0294 20.114C43.9452 20.0248 43.833 19.9801 43.6928 19.9801C43.5271 19.9801 43.3853 20.0445 43.2674 20.1733C43.1495 20.3026 43.0905 20.4837 43.0905 20.7163V22.0309H42.622V19.6073H43.0905V20.0232C43.2339 19.7236 43.4857 19.5738 43.8458 19.5738C44.0848 19.5738 44.2744 19.6471 44.4146 19.7937C44.5549 19.9403 44.625 20.1395 44.625 20.3912ZM46.039 21.6819C46.1919 21.6819 46.3124 21.6395 46.4004 21.5548C46.4877 21.4706 46.5313 21.36 46.5313 21.223V20.9505H46.168C45.9896 20.9505 45.8551 20.9856 45.7646 21.0557C45.6734 21.1258 45.6279 21.215 45.6279 21.3234C45.6279 21.4349 45.6629 21.5226 45.733 21.5863C45.8031 21.65 45.9051 21.6819 46.039 21.6819ZM46.5457 22.0309V21.7441C46.4214 21.948 46.2031 22.05 45.8908 22.05C45.6613 22.05 45.4774 21.9837 45.3391 21.8511C45.2002 21.7192 45.1307 21.5512 45.1307 21.3473C45.1307 21.1147 45.2184 20.9336 45.3936 20.8043C45.5689 20.6755 45.8143 20.6111 46.1298 20.6111H46.5313V20.4725C46.5313 20.3068 46.4915 20.1815 46.4118 20.0968C46.3322 20.0126 46.1999 19.9706 46.0151 19.9706C45.7569 19.9706 45.5227 20.0423 45.3124 20.1857V19.7316C45.5004 19.6232 45.749 19.569 46.0581 19.569C46.6923 19.569 47.0094 19.8766 47.0094 20.4916V22.0309H46.5457ZM48.9119 21.5481V21.9687C48.8067 22.0261 48.6777 22.0548 48.5247 22.0548C48.0244 22.0548 47.7742 21.8014 47.7742 21.2947V19.9706H47.3966V19.6073H47.7742V19.0145H48.2474V19.6073H48.8832V19.9706H48.2474V21.3043C48.2474 21.5369 48.359 21.6532 48.5821 21.6532C48.7127 21.6532 48.8227 21.6182 48.9119 21.5481ZM49.9205 19.6073V22.0309H49.4473V19.6073H49.9205ZM49.9779 18.8663C49.9779 18.946 49.9492 19.0145 49.8919 19.0719C49.8345 19.1293 49.7644 19.1579 49.6815 19.1579C49.5987 19.1579 49.5292 19.1299 49.4731 19.0738C49.4177 19.0183 49.3899 18.9492 49.3899 18.8663C49.3899 18.7835 49.4177 18.7134 49.4731 18.656C49.5292 18.5986 49.5987 18.57 49.6815 18.57C49.7644 18.57 49.8345 18.5986 49.8919 18.656C49.9492 18.7134 49.9779 18.7835 49.9779 18.8663ZM52.6023 20.3912V22.0309H52.1338V20.5012C52.1338 20.3323 52.0914 20.2032 52.0066 20.114C51.9225 20.0248 51.8103 19.9801 51.6701 19.9801C51.5044 19.9801 51.3626 20.0445 51.2447 20.1733C51.1268 20.3026 51.0678 20.4837 51.0678 20.7163V22.0309H50.5993V19.6073H51.0678V20.0232C51.2112 19.7236 51.463 19.5738 51.8231 19.5738C52.0621 19.5738 52.2517 19.6471 52.3919 19.7937C52.5322 19.9403 52.6023 20.1395 52.6023 20.3912ZM55.2735 19.6073V21.8253C55.2735 22.1982 55.1677 22.4796 54.9561 22.6695C54.7438 22.8588 54.472 22.9535 54.1406 22.9535C53.8282 22.9535 53.5653 22.9009 53.3518 22.7957V22.3225C53.5558 22.4563 53.8027 22.5232 54.0928 22.5232C54.5676 22.5232 54.805 22.289 54.805 21.8205V21.572C54.6489 21.8333 54.4146 21.9639 54.1023 21.9639C53.8282 21.9639 53.594 21.8626 53.3996 21.6599C53.2052 21.4579 53.108 21.172 53.108 20.8023C53.108 20.4454 53.1988 20.1513 53.3805 19.9199C53.5621 19.6892 53.8027 19.5738 54.1023 19.5738C54.4242 19.5738 54.6584 19.7109 54.805 19.9849V19.6073H55.2735ZM53.6004 20.7928C53.6004 21.0445 53.6587 21.2358 53.7753 21.3664C53.8913 21.4971 54.029 21.5624 54.1884 21.5624C54.3541 21.5624 54.4984 21.4977 54.6214 21.3683C54.7438 21.2396 54.805 21.0589 54.805 20.8262C54.805 20.5394 54.747 20.3275 54.631 20.1905C54.5144 20.0534 54.3732 19.9849 54.2075 19.9849C54.0195 19.9849 53.8713 20.0592 53.7629 20.2077C53.6546 20.3555 53.6004 20.5506 53.6004 20.7928ZM58.4428 20.831V22.0309H57.9504V20.831L56.8605 18.809H57.4246L57.654 19.2822C57.8006 19.5786 57.9186 19.8224 58.0078 20.0136C58.097 20.2048 58.1496 20.3227 58.1655 20.3673L58.1942 20.4295C58.2229 20.3339 58.4077 19.9515 58.7487 19.2822L58.983 18.809H59.547L58.4428 20.831ZM61.8559 19.9247C62.056 20.1592 62.1561 20.4582 62.1561 20.8215C62.1561 21.1848 62.0535 21.4843 61.8482 21.7202C61.6424 21.956 61.3597 22.0739 61.0002 22.0739C60.6427 22.0739 60.3622 21.9576 60.1589 21.7249C59.9549 21.4923 59.853 21.1975 59.853 20.8406C59.853 20.4773 59.9581 20.1752 60.1685 19.9342C60.3782 19.694 60.6554 19.5738 61.0002 19.5738C61.3699 19.5738 61.6551 19.6908 61.8559 19.9247ZM60.3396 20.8262C60.3396 21.0653 60.3989 21.2667 60.5174 21.4305C60.6353 21.5949 60.7963 21.6771 61.0002 21.6771C61.2163 21.6771 61.3811 21.5975 61.4945 21.4381C61.608 21.2788 61.6647 21.0764 61.6647 20.831C61.6647 20.5793 61.6105 20.3728 61.5022 20.2115C61.3938 20.0509 61.2249 19.9706 60.9954 19.9706C60.7883 19.9706 60.627 20.0525 60.5117 20.2163C60.397 20.3807 60.3396 20.584 60.3396 20.8262ZM64.6562 19.6073V22.0309H64.1877V21.615C64.0602 21.9114 63.8085 22.0596 63.4324 22.0596C63.1934 22.0596 63.0038 21.9885 62.8636 21.8464C62.7234 21.7049 62.6532 21.5098 62.6532 21.2612V19.6073H63.1265V21.1465C63.1265 21.3122 63.1673 21.4388 63.2489 21.5261C63.3298 21.614 63.442 21.658 63.5854 21.658C63.767 21.658 63.913 21.5943 64.0233 21.4668C64.1329 21.3393 64.1877 21.1593 64.1877 20.9266V19.6073H64.6562ZM65.7843 20.7402V22.0309H65.3158V19.6073H65.7843V20.0327C65.9022 19.7332 66.1141 19.5834 66.4201 19.5834C66.4647 19.5834 66.5141 19.5882 66.5683 19.5977V20.0566C66.5014 20.0279 66.4265 20.0136 66.3436 20.0136C66.1811 20.0136 66.0472 20.0853 65.9421 20.2287C65.8369 20.3721 65.7843 20.5426 65.7843 20.7402ZM70.5646 19.1981C70.8291 19.4996 70.9613 19.9021 70.9613 20.4056C70.9613 20.9091 70.8281 21.3122 70.5617 21.615C70.2953 21.9177 69.9361 22.0691 69.4842 22.0691C69.0349 22.0691 68.6754 21.9177 68.4058 21.615C68.1368 21.3122 68.0023 20.9091 68.0023 20.4056C68.0023 19.9052 68.1362 19.5037 68.4039 19.201C68.6716 18.8982 69.0301 18.7468 69.4795 18.7468C69.9384 18.7468 70.3001 18.8973 70.5646 19.1981ZM68.7739 19.5279C68.6037 19.7434 68.5186 20.0359 68.5186 20.4056C68.5186 20.7753 68.6063 21.0684 68.7815 21.2851C68.9568 21.5019 69.191 21.6102 69.4842 21.6102C69.787 21.6102 70.0228 21.5034 70.1917 21.2899C70.3606 21.0764 70.4451 20.7816 70.4451 20.4056C70.4451 20.0327 70.3597 19.7395 70.1888 19.526C70.0187 19.3125 69.7822 19.2057 69.4795 19.2057C69.1799 19.2057 68.9447 19.3131 68.7739 19.5279ZM73.513 20.3912V22.0309H73.0446V20.5012C73.0446 20.3323 73.0025 20.2032 72.9184 20.114C72.8336 20.0248 72.7211 19.9801 72.5809 19.9801C72.4152 19.9801 72.2734 20.0445 72.1554 20.1733C72.0375 20.3026 71.9786 20.4837 71.9786 20.7163V22.0309H71.5101V19.6073H71.9786V20.0232C72.122 19.7236 72.3737 19.5738 72.7338 19.5738C72.9729 19.5738 73.1625 19.6471 73.3027 19.7937C73.4429 19.9403 73.513 20.1395 73.513 20.3912ZM74.6364 18.6512V22.0309H74.1631V18.6512H74.6364ZM75.8076 19.6073V22.0309H75.3343V19.6073H75.8076ZM75.8649 18.8663C75.8649 18.946 75.8362 19.0145 75.7789 19.0719C75.7215 19.1293 75.6514 19.1579 75.5685 19.1579C75.4857 19.1579 75.4162 19.1299 75.3601 19.0738C75.3047 19.0183 75.2769 18.9492 75.2769 18.8663C75.2769 18.7835 75.3047 18.7134 75.3601 18.656C75.4162 18.5986 75.4857 18.57 75.5685 18.57C75.6514 18.57 75.7215 18.5986 75.7789 18.656C75.8362 18.7134 75.8649 18.7835 75.8649 18.8663ZM78.4893 20.3912V22.0309H78.0208V20.5012C78.0208 20.3323 77.9784 20.2032 77.8937 20.114C77.8095 20.0248 77.6974 19.9801 77.5571 19.9801C77.3914 19.9801 77.2496 20.0445 77.1317 20.1733C77.0138 20.3026 76.9548 20.4837 76.9548 20.7163V22.0309H76.4864V19.6073H76.9548V20.0232C77.0982 19.7236 77.35 19.5738 77.7101 19.5738C77.9491 19.5738 78.1387 19.6471 78.2789 19.7937C78.4192 19.9403 78.4893 20.1395 78.4893 20.3912ZM80.9263 21.4811V21.9018C80.7478 22.0038 80.512 22.0548 80.2188 22.0548C79.8427 22.0548 79.5432 21.9416 79.3201 21.7154C79.097 21.4891 78.9855 21.1927 78.9855 20.8262C78.9855 20.4374 79.0875 20.1321 79.2914 19.9103C79.4954 19.6892 79.7551 19.5786 80.0706 19.5786C80.3797 19.5786 80.6251 19.6748 80.8068 19.8673C80.9884 20.0604 81.0792 20.3387 81.0792 20.702C81.0792 20.8007 81.0697 20.9043 81.0505 21.0127H79.4587C79.4906 21.223 79.5798 21.3839 79.7264 21.4955C79.873 21.607 80.0578 21.6628 80.2809 21.6628C80.5391 21.6628 80.7542 21.6022 80.9263 21.4811ZM80.0802 19.9658C79.9208 19.9658 79.7838 20.0238 79.6691 20.1398C79.5543 20.2564 79.4826 20.4247 79.4539 20.6446H80.6251V20.5585C80.6187 20.3769 80.5693 20.2325 80.4769 20.1255C80.3845 20.019 80.2522 19.9658 80.0802 19.9658ZM83.7753 20.8884H83.3164V22.0309H82.824V18.809H83.7466C84.1163 18.809 84.4095 18.9068 84.6262 19.1025C84.8429 19.2988 84.9512 19.5499 84.9512 19.8559C84.9512 20.1618 84.8419 20.4104 84.6233 20.6016C84.4053 20.7928 84.1227 20.8884 83.7753 20.8884ZM83.7275 19.2153H83.3164V20.4821H83.737C83.9697 20.4821 84.1472 20.4247 84.2696 20.31C84.3926 20.1952 84.4541 20.0439 84.4541 19.8559C84.4541 19.6583 84.3919 19.5021 84.2677 19.3874C84.1434 19.2727 83.9633 19.2153 83.7275 19.2153ZM85.9016 20.7402V22.0309H85.4331V19.6073H85.9016V20.0327C86.0195 19.7332 86.2314 19.5834 86.5373 19.5834C86.5819 19.5834 86.6313 19.5882 86.6855 19.5977V20.0566C86.6186 20.0279 86.5437 20.0136 86.4608 20.0136C86.2983 20.0136 86.1645 20.0853 86.0593 20.2287C85.9541 20.3721 85.9016 20.5426 85.9016 20.7402ZM88.8605 21.4811V21.9018C88.6821 22.0038 88.4462 22.0548 88.1531 22.0548C87.777 22.0548 87.4774 21.9416 87.2544 21.7154C87.0313 21.4891 86.9198 21.1927 86.9198 20.8262C86.9198 20.4374 87.0217 20.1321 87.2257 19.9103C87.4296 19.6892 87.6894 19.5786 88.0049 19.5786C88.314 19.5786 88.5594 19.6748 88.741 19.8673C88.9227 20.0604 89.0135 20.3387 89.0135 20.702C89.0135 20.8007 89.0039 20.9043 88.9848 21.0127H87.393C87.4249 21.223 87.5141 21.3839 87.6607 21.4955C87.8073 21.607 87.9921 21.6628 88.2152 21.6628C88.4733 21.6628 88.6884 21.6022 88.8605 21.4811ZM88.0144 19.9658C87.8551 19.9658 87.718 20.0238 87.6033 20.1398C87.4886 20.2564 87.4169 20.4247 87.3882 20.6446H88.5594V20.5585C88.553 20.3769 88.5036 20.2325 88.4112 20.1255C88.3188 20.019 88.1865 19.9658 88.0144 19.9658ZM91.0786 21.3616C91.0786 21.5783 91.0021 21.7479 90.8491 21.8703C90.6962 21.9933 90.489 22.0548 90.2277 22.0548C89.9409 22.0548 89.7019 22.007 89.5106 21.9114V21.4668C89.7337 21.6038 89.9648 21.6723 90.2038 21.6723C90.3281 21.6723 90.4243 21.6469 90.4925 21.5959C90.5614 21.5449 90.5958 21.478 90.5958 21.3951C90.5958 21.325 90.5687 21.2619 90.5145 21.2058C90.4603 21.1503 90.4052 21.1089 90.3491 21.0815C90.2937 21.0547 90.199 21.0127 90.0652 20.9553C89.6859 20.7992 89.4963 20.5697 89.4963 20.267C89.4963 20.0534 89.576 19.8861 89.7353 19.765C89.8947 19.6439 90.0938 19.5834 90.3329 19.5834C90.5942 19.5834 90.7981 19.6184 90.9447 19.6885V20.114C90.7886 20.0216 90.5878 19.9754 90.3424 19.9754C90.2309 19.9754 90.1423 20.0009 90.0766 20.0518C90.0116 20.1028 89.9791 20.1698 89.9791 20.2526C89.9791 20.2749 89.9813 20.2963 89.9858 20.3167C89.9909 20.3377 89.9998 20.3584 90.0126 20.3788C90.0253 20.3998 90.0371 20.4174 90.0479 20.4314C90.0594 20.4461 90.0779 20.4614 90.1034 20.4773C90.1289 20.4932 90.1487 20.5066 90.1627 20.5174C90.1773 20.5289 90.2012 20.5426 90.2344 20.5585C90.2682 20.5745 90.293 20.5863 90.3089 20.5939C90.3249 20.6022 90.3526 20.615 90.3921 20.6322C90.4323 20.65 90.4603 20.6621 90.4763 20.6685C90.6643 20.7514 90.8115 20.8444 90.918 20.9477C91.025 21.0516 91.0786 21.1895 91.0786 21.3616ZM93.3731 21.4811V21.9018C93.1946 22.0038 92.9588 22.0548 92.6656 22.0548C92.2896 22.0548 91.99 21.9416 91.7669 21.7154C91.5438 21.4891 91.4323 21.1927 91.4323 20.8262C91.4323 20.4374 91.5343 20.1321 91.7382 19.9103C91.9422 19.6892 92.2019 19.5786 92.5174 19.5786C92.8266 19.5786 93.0719 19.6748 93.2536 19.8673C93.4352 20.0604 93.5261 20.3387 93.5261 20.702C93.5261 20.8007 93.5165 20.9043 93.4974 21.0127H91.9056C91.9374 21.223 92.0267 21.3839 92.1732 21.4955C92.3198 21.607 92.5047 21.6628 92.7278 21.6628C92.9859 21.6628 93.201 21.6022 93.3731 21.4811ZM92.527 19.9658C92.3676 19.9658 92.2306 20.0238 92.1159 20.1398C92.0012 20.2564 91.9295 20.4247 91.9008 20.6446H93.0719V20.5585C93.0656 20.3769 93.0162 20.2325 92.9238 20.1255C92.8313 20.019 92.6991 19.9658 92.527 19.9658ZM96.0778 20.3912V22.0309H95.6093V20.5012C95.6093 20.3323 95.5672 20.2032 95.4831 20.114C95.3983 20.0248 95.2858 19.9801 95.1456 19.9801C94.9799 19.9801 94.8381 20.0445 94.7202 20.1733C94.6023 20.3026 94.5433 20.4837 94.5433 20.7163V22.0309H94.0748V19.6073H94.5433V20.0232C94.6867 19.7236 94.9385 19.5738 95.2986 19.5738C95.5376 19.5738 95.7272 19.6471 95.8674 19.7937C96.0077 19.9403 96.0778 20.1395 96.0778 20.3912ZM98.4201 21.5146V21.9353C98.2639 22.0309 98.0648 22.0787 97.8226 22.0787C97.4433 22.0787 97.1406 21.9592 96.9143 21.7202C96.688 21.4811 96.5749 21.1832 96.5749 20.8262C96.5749 20.4789 96.689 20.1815 96.9172 19.9342C97.1447 19.6876 97.4529 19.5643 97.8417 19.5643C98.052 19.5643 98.2448 19.6089 98.4201 19.6981V20.1283C98.2639 20.0295 98.0871 19.9801 97.8895 19.9801C97.6377 19.9801 97.4363 20.0598 97.2853 20.2192C97.1336 20.3785 97.0577 20.5825 97.0577 20.831C97.0641 21.0764 97.139 21.2778 97.2824 21.4352C97.4258 21.5933 97.6266 21.6723 97.8847 21.6723C98.0759 21.6723 98.2544 21.6198 98.4201 21.5146ZM100.767 21.4811V21.9018C100.589 22.0038 100.353 22.0548 100.06 22.0548C99.6837 22.0548 99.3841 21.9416 99.161 21.7154C98.938 21.4891 98.8264 21.1927 98.8264 20.8262C98.8264 20.4374 98.9284 20.1321 99.1324 19.9103C99.3363 19.6892 99.596 19.5786 99.9115 19.5786C100.221 19.5786 100.466 19.6748 100.648 19.8673C100.829 20.0604 100.92 20.3387 100.92 20.702C100.92 20.8007 100.911 20.9043 100.891 21.0127H99.2997C99.3315 21.223 99.4208 21.3839 99.5674 21.4955C99.714 21.607 99.8988 21.6628 100.122 21.6628C100.38 21.6628 100.595 21.6022 100.767 21.4811ZM99.9211 19.9658C99.7618 19.9658 99.6247 20.0238 99.51 20.1398C99.3953 20.2564 99.3236 20.4247 99.2949 20.6446H100.466V20.5585C100.46 20.3769 100.41 20.2325 100.318 20.1255C100.225 20.019 100.093 19.9658 99.9211 19.9658Z" fill="#609966"/>
</g>
</g>
</g>
</g>
<g clip-path="url(#clip9_10_926)">
<g clip-path="url(#clip10_10_926)">
<path d="M5.67764 2.04377C9.39937 2.46467 10.9853 5.01031 11.4305 6.34127C11.7192 7.20411 11.8276 7.71567 11.8276 8.84373C11.8276 9.06417 11.8395 9.40385 11.5433 9.44163C11.3355 9.46834 11.2171 9.3043 11.1998 9.12271C11.1218 8.30628 10.8871 7.35035 10.1184 6.46511C9.51053 5.76523 8.1024 4.36007 5.62557 4.57079C4.90545 4.63231 4.2625 4.06679 4.24173 3.33939C4.2196 2.56612 4.9122 1.95717 5.67764 2.04377Z" fill="#609966"/>
<path d="M17.3509 21.0558C13.6291 20.6346 12.0435 18.0892 11.598 16.758C11.3093 15.8952 11.2009 15.3836 11.2009 14.2555C11.2009 14.0351 11.189 13.6954 11.4852 13.6576C11.693 13.6309 11.8114 13.795 11.8287 13.9765C11.9067 14.793 12.1414 15.7489 12.9101 16.6342C13.518 17.334 14.9261 18.7392 17.4029 18.5285C18.1231 18.467 18.766 19.0325 18.7868 19.7599C18.8089 20.5334 18.1163 21.1424 17.3509 21.0558Z" fill="#609966"/>
<path d="M2.00822 17.3867C2.42912 13.6649 4.97475 12.079 6.30572 11.6338C7.16856 11.3451 7.68012 11.2367 8.80845 11.2367C9.02888 11.2367 9.36857 11.2245 9.40634 11.521C9.43279 11.7288 9.26901 11.8472 9.08743 11.8645C8.27099 11.9422 7.31507 12.1772 6.4301 12.9459C5.73022 13.554 4.32506 14.9622 4.53578 17.4387C4.59729 18.1588 4.03178 18.8018 3.30438 18.8226C2.53057 18.8444 1.92161 18.1521 2.00822 17.3867Z" fill="#609966"/>
<path d="M21.0202 5.71315C20.5993 9.43488 18.0537 11.0208 16.7227 11.466C15.8599 11.7547 15.3483 11.8631 14.22 11.8631C13.9995 11.8631 13.6599 11.8753 13.6221 11.5788C13.5956 11.371 13.7594 11.2526 13.941 11.2353C14.7574 11.1576 15.7134 10.9226 16.5983 10.1539C17.2982 9.54577 18.7034 8.13764 18.4926 5.66108C18.4311 4.94096 18.9966 4.29801 19.724 4.27724C20.4979 4.25538 21.1068 4.94771 21.0202 5.71315Z" fill="#609966"/>
<path d="M1.70653 6.23578C5.1401 4.73943 7.7861 6.15106 8.83754 7.08109C9.51907 7.68384 9.86847 8.0729 10.4326 9.04988C10.543 9.2409 10.7232 9.52879 10.4853 9.70983C10.3188 9.83664 10.134 9.75407 10.0285 9.60541C9.5528 8.9371 8.87127 8.22696 7.76317 7.84492C6.88656 7.54273 4.96445 7.02983 2.92525 8.4509C2.33221 8.86398 1.49284 8.69562 1.11106 8.07614C0.705001 7.417 1.00044 6.54337 1.70653 6.23578Z" fill="#609966"/>
<path d="M21.3218 16.8638C17.8882 18.3601 15.2422 16.9485 14.1908 16.0185C13.5092 15.4157 13.1598 15.0267 12.5956 14.0497C12.4853 13.8587 12.3051 13.5708 12.5428 13.3897C12.7095 13.2629 12.8941 13.3455 12.9998 13.4941C13.4755 14.1625 14.157 14.8726 15.2651 15.2546C16.1417 15.5568 18.0638 16.0697 20.103 14.6489C20.6961 14.2356 21.5354 14.4039 21.9172 15.0234C22.3233 15.6826 22.0278 16.5562 21.3218 16.8638Z" fill="#609966"/>
<path d="M6.1999 21.3577C4.70354 17.9241 6.11518 15.2781 7.0452 14.2267C7.64822 13.5454 8.03702 13.1957 9.01426 12.6316C9.20528 12.5212 9.49317 12.3413 9.67394 12.579C9.80075 12.7454 9.71819 12.9303 9.56952 13.0357C8.90121 13.5117 8.19108 14.193 7.80903 15.3011C7.50684 16.1774 6.99394 18.0995 8.41502 20.139C8.82809 20.732 8.66 21.5716 8.04025 21.9534C7.38138 22.3589 6.50775 22.0638 6.1999 21.3577Z" fill="#609966"/>
<path d="M16.8282 1.74214C18.3246 5.17571 16.9129 7.82171 15.9829 8.87315C15.3802 9.55469 14.9914 9.90409 14.0141 10.4685C13.8231 10.5786 13.5352 10.7588 13.3542 10.5211C13.2274 10.3544 13.3102 10.1696 13.4589 10.0641C14.1272 9.58841 14.8373 8.90715 15.2193 7.79878C15.5215 6.92218 16.0344 5.00034 14.6134 2.96059C14.2 2.36755 14.3684 1.52818 14.9879 1.14641C15.647 0.740885 16.5206 1.03605 16.8282 1.74214Z" fill="#609966"/>
<path d="M0.36315 11.8516C2.58852 8.83889 5.58581 8.73825 6.96156 9.01804C7.85328 9.19935 8.35026 9.36123 9.3275 9.9254C9.51853 10.0355 9.81855 10.1949 9.70308 10.4707C9.6224 10.6639 9.42113 10.6846 9.2552 10.6088C8.50918 10.2681 7.56377 9.99366 6.41331 10.2168C5.50298 10.3932 3.58195 10.9102 2.52647 13.1607C2.21943 13.8149 1.40838 14.0888 0.767861 13.7432C0.0865969 13.3754 -0.0941741 12.471 0.36315 11.8516Z" fill="#609966"/>
<path d="M22.6648 11.2483C20.4395 14.2607 17.4419 14.3613 16.0667 14.0815C15.175 13.9002 14.678 13.7383 13.7008 13.1742C13.5097 13.0641 13.2097 12.9046 13.3249 12.6289C13.4059 12.4357 13.6071 12.4149 13.7728 12.4907C14.5191 12.8318 15.4642 13.1059 16.6149 12.8828C17.525 12.7063 19.446 12.1896 20.5018 9.93916C20.8088 9.28461 21.6199 9.01075 22.2601 9.35638C22.9414 9.72413 23.1224 10.6285 22.6648 11.2483Z" fill="#609966"/>
<path d="M11.816 22.7008C8.80328 20.4754 8.70264 17.4781 8.98243 16.1026C9.16401 15.2109 9.32563 14.7139 9.89006 13.7364C10.0004 13.5454 10.1599 13.2457 10.4351 13.3609C10.6283 13.4418 10.649 13.6428 10.5732 13.8087C10.2325 14.5548 9.95806 15.5002 10.1812 16.6506C10.3576 17.561 10.8746 19.4817 13.1251 20.5375C13.7793 20.8445 14.0532 21.6556 13.7076 22.2961C13.3396 22.9773 12.4354 23.1584 11.816 22.7008Z" fill="#609966"/>
<path d="M11.2123 0.399304C14.225 2.62441 14.3254 5.6217 14.0456 6.99745C13.8643 7.88916 13.7027 8.38615 13.1385 9.36366C13.0281 9.55441 12.8687 9.85444 12.5932 9.73923C12.4 9.65829 12.3795 9.45701 12.4553 9.29108C12.7961 8.54506 13.0705 7.59993 12.8474 6.4492C12.6706 5.53914 12.154 3.61838 9.9035 2.56235C9.24895 2.25558 8.97537 1.44427 9.32099 0.804015C9.68847 0.122481 10.5926 -0.0582896 11.2123 0.399304Z" fill="#609966"/>
</g>
</g>
</g>
</g>
</g>
<defs>
<clipPath id="clip0_10_926">
<rect width="150" height="23.1" fill="white"/>
</clipPath>
<clipPath id="clip1_10_926">
<rect width="149.779" height="22.9209" fill="white" transform="translate(0.110596 0.0895386)"/>
</clipPath>
<clipPath id="clip2_10_926">
<rect width="149.779" height="22.9209" fill="white" transform="translate(0.110596 0.0895386)"/>
</clipPath>
<clipPath id="clip3_10_926">
<rect width="118.59" height="22.8069" fill="white" transform="translate(31.2991 0.146561)"/>
</clipPath>
<clipPath id="clip4_10_926">
<rect width="118.59" height="22.8069" fill="white" transform="translate(31.2991 0.146561)"/>
</clipPath>
<clipPath id="clip5_10_926">
<rect width="118.59" height="14.9047" fill="white" transform="translate(31.2991 0.146561)"/>
</clipPath>
<clipPath id="clip6_10_926">
<rect width="118.59" height="14.9047" fill="white" transform="translate(31.2991 0.146561)"/>
</clipPath>
<clipPath id="clip7_10_926">
<rect width="69.6245" height="4.3835" fill="white" transform="translate(31.2991 18.57)"/>
</clipPath>
<clipPath id="clip8_10_926">
<rect width="69.6245" height="4.3835" fill="white" transform="translate(31.2991 18.57)"/>
</clipPath>
<clipPath id="clip9_10_926">
<rect width="22.807" height="22.8069" fill="white" transform="translate(0.110596 0.146561)"/>
</clipPath>
<clipPath id="clip10_10_926">
<rect width="22.807" height="22.8069" fill="white" transform="translate(0.110596 0.146561)"/>
</clipPath>
</defs>
</svg>
