<svg width="64" height="66" viewBox="0 0 64 66" fill="none" xmlns="http://www.w3.org/2000/svg">
<path d="M59.7093 17.1117C56.8477 12.1253 52.9661 8.17736 48.0635 5.26695C43.16 2.35669 37.8072 0.901855 32.001 0.901855C26.1953 0.901855 20.8414 2.35669 15.9382 5.26695C11.0353 8.17691 7.15374 12.1249 4.29213 17.1117C1.43037 22.0987 0 27.5447 0 33.4492C0 39.3538 1.43081 44.7992 4.29169 49.7866C7.15316 54.7718 11.0348 58.7208 15.9376 61.6315C20.8408 64.5417 26.1948 65.9966 32.0004 65.9966C37.8059 65.9966 43.1605 64.5417 48.0634 61.6315C52.966 58.7219 56.8474 54.7729 59.7088 49.7866C62.5696 44.7992 63.9999 39.3533 63.9999 33.4492C64 27.5447 62.5696 22.098 59.7093 17.1117ZM36.0032 50.5739C35.7241 50.2356 35.6276 49.9525 35.7115 49.7255C35.6836 49.8672 35.5863 49.9942 35.4199 50.1069C35.2811 49.9377 35.0303 49.7255 34.6696 49.4716C34.308 49.2164 34.0584 49.005 33.9195 48.8345C33.8635 48.7502 33.7877 48.6302 33.6902 48.4748C33.5929 48.3194 33.4681 48.1147 33.3153 47.8601C33.1634 47.6062 33.0525 47.3868 32.9827 47.2027C32.9137 47.0189 32.9072 46.9132 32.9617 46.8858C32.4343 47.1123 31.6701 46.9569 30.6703 46.4194C30.476 46.3066 30.1838 46.0099 29.7952 45.5294C29.4066 45.0489 29.0036 44.8375 28.5868 44.8935C28.4482 44.9218 28.2605 44.9711 28.0242 45.0418C27.7885 45.1129 27.587 45.1474 27.4201 45.1474C27.2533 45.1474 27.0311 45.0916 26.7532 44.9776C26.5314 44.8935 26.2328 44.7303 25.8577 44.4906C25.4829 44.2509 25.2256 44.1016 25.0871 44.0462C24.7261 43.848 24.5455 43.7495 24.5455 43.7495L23.8789 43.4112C23.7121 43.327 23.5383 43.1927 23.3577 43.0089C23.1772 42.825 23.0596 42.6341 23.004 42.4364C22.9485 42.2673 22.879 41.928 22.7957 41.419C22.7124 40.9099 22.601 40.5432 22.4624 40.3176C22.296 40.0353 22.0599 39.7526 21.754 39.4703C21.4488 39.188 21.1711 39.0456 20.921 39.0456C21.1434 39.0456 21.1434 38.8562 20.921 38.4737C20.6985 38.0916 20.5041 37.8163 20.3373 37.6478C20.2817 37.5908 20.1149 37.4075 19.8372 37.0961C19.5595 36.7851 19.3233 36.5174 19.1289 36.2903C18.9347 36.0644 18.7673 35.8033 18.6288 35.5061C18.4902 35.2094 18.462 34.9626 18.5455 34.7644C18.5731 34.7365 18.5455 34.6937 18.462 34.6375C18.3787 34.5817 18.2749 34.5242 18.1495 34.4678C18.0248 34.4119 17.9065 34.3621 17.7958 34.3195C17.6841 34.2778 17.6008 34.2565 17.5455 34.2565C17.6014 34.3703 17.6637 34.5746 17.7333 34.8711C17.8028 35.1683 17.8791 35.3874 17.9623 35.5286C18.0182 35.6414 18.254 36.0516 18.6707 36.7567C19.3934 37.9433 19.7261 38.8202 19.671 39.385C19.5042 39.4409 19.3928 39.4133 19.3373 39.3006C19.2817 39.188 19.2397 39.0324 19.2123 38.8344C19.1845 38.6373 19.1571 38.4961 19.1288 38.4108C19.0455 38.2411 18.8302 38.0572 18.4827 37.859C18.1357 37.662 17.9201 37.4639 17.8369 37.2657C17.8649 37.2657 17.8991 37.2525 17.9411 37.2231C17.983 37.1948 18.018 37.1816 18.0455 37.1816C18.0736 36.9274 17.9278 36.6025 17.6082 36.2062C17.2886 35.811 17.1573 35.5287 17.2124 35.3589C16.99 35.1892 16.7956 34.857 16.6288 34.3633C16.4622 33.8686 16.3231 33.5505 16.212 33.409C16.1011 33.2401 15.9626 33.0918 15.7956 32.9643C15.6288 32.8375 15.4209 32.6964 15.1706 32.5408C14.9206 32.3854 14.7538 32.2797 14.6704 32.223C14.6147 32.1953 14.5039 32.0686 14.3371 31.8424C13.4206 30.7119 13.1429 30.1044 13.5041 30.0198C13.143 30.1044 12.8443 29.8292 12.6081 29.193C12.3719 28.5575 12.2957 28.0696 12.3789 27.7307L12.2957 27.6885C12.3237 27.5753 12.3374 27.2438 12.3374 26.6924C12.3374 26.1412 12.3725 25.6397 12.4418 25.1878C12.5115 24.7358 12.6433 24.5095 12.8376 24.5095C12.6433 24.5377 12.4977 24.3607 12.4003 23.98C12.3031 23.5982 12.2963 23.3367 12.3793 23.1956C12.407 23.1107 12.5324 23.1679 12.7544 23.3653C12.9762 23.5624 13.1014 23.6904 13.1292 23.7465C13.4904 23.5482 13.6294 23.2944 13.546 22.9832C13.4904 22.8704 13.1986 22.5738 12.6709 22.0932C11.4762 21.3025 10.8649 20.9208 10.8376 20.9488C11.0037 20.6384 10.9622 20.37 10.7122 20.1436C10.4346 20.3133 10.275 20.3555 10.2331 20.2711C10.1917 20.1862 10.1569 20.0314 10.1288 19.805C10.1013 19.5793 10.0316 19.4522 9.92079 19.4239C9.7817 19.3957 9.61489 19.2828 9.42065 19.085C11.8927 15.073 15.1566 11.937 19.2123 9.67628C19.3788 9.64837 19.6842 9.63412 20.1286 9.63412C20.3506 9.66233 20.5592 9.73313 20.7534 9.84594C20.948 9.95876 21.1495 10.1145 21.3575 10.312C21.5662 10.5092 21.7258 10.6506 21.8367 10.7355C21.8923 10.5659 21.823 10.3116 21.6286 9.97256C21.6838 9.8029 21.9895 9.63323 22.5451 9.46387C23.1836 9.37911 23.6007 9.39291 23.795 9.50647C23.6286 9.25204 23.351 8.89876 22.9619 8.44692L22.7537 8.65844C22.5313 8.46087 21.9484 8.55959 21.0037 8.95517C20.9485 8.98308 20.8095 9.0613 20.587 9.18807C20.3651 9.31498 20.184 9.40701 20.0455 9.46342C19.8786 9.51997 19.7121 9.53408 19.5453 9.50587C20.8785 8.77155 22.1844 8.19146 23.4624 7.76812C23.545 7.82423 23.6842 7.94446 23.8787 8.12793C24.073 8.31155 24.2258 8.44603 24.337 8.53049C24.2537 8.47438 24.1979 8.50199 24.1702 8.61525C24.0593 8.95413 24.0593 9.23661 24.1702 9.46253C24.3088 9.66084 24.4965 9.77321 24.7328 9.80186C24.9691 9.82976 25.2535 9.81581 25.5868 9.75911C25.9202 9.703 26.1427 9.67435 26.2538 9.67435L26.6706 9.7171C27.5592 9.80186 27.9067 9.7171 27.7123 9.46253C27.7955 9.57608 27.8927 9.80898 28.0038 10.1623C28.1147 10.5155 28.24 10.7628 28.3785 10.9042C28.5176 10.7906 28.5454 10.593 28.4619 10.3106C28.3785 10.0281 28.3785 9.82976 28.4619 9.71695C28.4893 9.66084 28.5728 9.60369 28.7119 9.54729C28.851 9.49118 29.0105 9.42765 29.1911 9.35699C29.3717 9.28604 29.4897 9.23676 29.5458 9.2087C29.7123 9.09544 29.6009 8.89758 29.2122 8.6151C29.1566 8.58675 29.0388 8.54444 28.8584 8.48789C28.6779 8.43223 28.5178 8.37493 28.3791 8.31867C28.2405 8.26256 28.0947 8.18463 27.9419 8.08577C27.7891 7.98677 27.7195 7.87395 27.733 7.74645C27.7471 7.61894 27.8238 7.45684 27.9623 7.25898C28.1291 7.11811 28.4001 7.06141 28.7749 7.08961C29.1497 7.11752 29.4347 7.18803 29.629 7.30113C30.3794 7.72507 30.4902 8.10715 29.9626 8.44559C30.2408 8.47349 30.5741 8.5866 30.9629 8.78417C31.3514 8.98219 31.5042 9.19415 31.4211 9.42037C31.6434 8.99658 31.8654 8.78417 32.0879 8.78417C32.2266 8.81282 32.3591 9.00371 32.4837 9.35684C32.6085 9.70983 32.6847 9.90042 32.7123 9.92907C32.935 10.2394 33.1558 10.3103 33.3795 10.1406C33.6013 9.97122 33.8311 9.72408 34.0667 9.399C34.3024 9.07437 34.4344 8.92608 34.4624 8.95428C34.1847 8.84176 34.1556 8.72851 34.3795 8.6154C34.795 8.36112 35.1706 8.29032 35.5043 8.40387C35.587 8.45998 35.699 8.58749 35.8367 8.78462C36.086 9.2939 36.0445 9.53363 35.7119 9.50543C35.9616 9.73165 36.0651 10.0144 36.0247 10.353C35.9828 10.692 35.7664 10.8476 35.3779 10.8191C35.2395 10.8191 35.0373 10.7481 34.773 10.6073C34.5092 10.4663 34.308 10.3888 34.1686 10.3744C34.0298 10.3597 33.835 10.4376 33.5853 10.6073C33.4744 10.7487 33.3286 10.9891 33.1478 11.3278C32.9671 11.6674 32.8071 11.9071 32.6683 12.0482C32.252 12.4719 31.5569 12.6277 30.5847 12.5143C30.6682 12.5143 30.6609 12.599 30.5637 12.7687C30.4661 12.938 30.3347 13.1291 30.1679 13.3408C30.0011 13.5526 29.9039 13.6727 29.8765 13.7009C29.6263 13.9833 29.4598 14.3084 29.3763 14.6756C29.3763 14.7322 29.3623 14.9231 29.3343 15.2476C29.3061 15.5727 29.251 15.8202 29.1675 15.9895C29.5008 15.9047 29.7648 16.0748 29.9591 16.4982C30.1259 16.8939 30.1259 17.1057 29.9591 17.1342C30.876 16.9935 31.6816 17.0496 32.3766 17.3039C33.3764 17.6711 33.9468 18.0383 34.0856 18.4057C34.2515 18.1512 34.654 18.1368 35.2932 18.363C35.5434 18.504 35.7646 18.9284 35.9603 19.6342C36.0712 20.0577 36.2591 20.4254 36.5228 20.7359C36.7871 21.0466 37.0712 21.1312 37.3773 20.9902L37.5018 20.9054C37.6131 20.8493 37.703 20.7996 37.7723 20.7573C37.8422 20.7151 37.9181 20.6584 38.001 20.5876C38.0849 20.5169 38.1338 20.4534 38.1468 20.3973C38.1598 20.3409 38.1398 20.2838 38.0849 20.2276C37.8901 20.058 37.7443 19.8251 37.6474 19.5288C37.5511 19.2321 37.572 18.9705 37.7105 18.7442C37.7932 18.6313 38.0156 18.4617 38.3765 18.2355C38.7382 18.0091 38.9604 17.7833 39.0432 17.5573C39.1557 17.19 39.0158 16.8862 38.6271 16.6457C38.2382 16.406 38.0434 16.187 38.0434 15.9889C38.0434 15.8474 38.1337 15.6782 38.3139 15.4802C38.4952 15.2826 38.5717 15.0984 38.5432 14.9293C38.5432 14.844 38.4942 14.6678 38.3973 14.3993C38.3009 14.1303 38.2445 13.9327 38.2309 13.8057C38.2169 13.6784 38.2799 13.5302 38.4181 13.3609C38.6119 13.2477 39.0705 13.2548 39.7926 13.3817C40.5149 13.5092 40.9874 13.6434 41.2101 13.7843C41.2939 13.8404 41.4743 13.9253 41.752 14.0387C42.0296 14.1509 42.2729 14.271 42.4817 14.3987C42.689 14.5256 42.8072 14.6452 42.8347 14.7585H42.6269C42.8212 14.9286 42.9397 15.1257 42.9805 15.3521C43.0226 15.5789 42.9187 15.748 42.669 15.8614C42.8347 15.8327 43.0579 15.8753 43.3356 15.9883C43.7802 16.1576 43.7942 16.3134 43.3775 16.4544C43.4604 16.4257 43.5783 16.398 43.7307 16.3695C43.8835 16.3413 44.001 16.2987 44.0847 16.2425C44.1398 16.214 44.2095 16.1651 44.2926 16.0941C44.3765 16.0235 44.4383 15.9809 44.4804 15.9673C44.5223 15.9534 44.5841 15.9387 44.6681 15.9246C44.751 15.9106 44.834 15.932 44.9167 15.9881C44.9458 15.9881 45.0077 15.9173 45.1046 15.7763C45.2009 15.6354 45.3064 15.494 45.4167 15.353C45.5282 15.212 45.6246 15.1414 45.7085 15.1414C45.7908 15.1414 45.8678 15.1762 45.9366 15.2468C46.0069 15.3178 46.0614 15.3951 46.1035 15.48C46.1454 15.5649 46.1863 15.6568 46.2283 15.7551C46.2702 15.8539 46.3042 15.9322 46.3322 15.9883C46.3871 16.1293 46.5199 16.2782 46.7277 16.433C46.9355 16.588 47.0673 16.7367 47.1232 16.8777C47.1512 16.9626 47.2057 17.1746 47.2896 17.5141C47.3725 17.8531 47.4844 18.086 47.6228 18.2129C47.7616 18.3404 47.9698 18.4461 48.2474 18.5307C48.303 18.5594 48.4288 18.545 48.6225 18.4889C48.8163 18.432 48.9767 18.4179 49.1015 18.4461C49.2273 18.474 49.2891 18.5868 49.2891 18.7851C49.4555 18.6155 49.5384 18.5022 49.5384 18.4461C49.5669 18.8135 49.6563 19.1104 49.8101 19.3361C49.963 19.5618 50.2057 19.6612 50.5393 19.6326L50.4554 20.5652C50.3725 20.7062 50.1642 20.8119 49.8301 20.8824C49.4965 20.9534 49.2887 21.0173 49.2048 21.0734C49.1219 21.1016 48.9202 21.2712 48.6004 21.5823C48.2808 21.8934 48.1499 22.077 48.2049 22.1331C47.7335 21.5962 47.0241 21.4408 46.0802 21.667C45.025 21.8366 44.3022 22.0061 43.9137 22.1757C43.4696 22.4021 43.1634 22.6136 42.9967 22.8112C42.9689 22.8394 42.9213 22.9387 42.8514 23.1079C42.7819 23.2773 42.7126 23.433 42.6436 23.574C42.5732 23.715 42.5118 23.7857 42.4563 23.7857C42.6236 23.7582 42.8105 23.6233 43.0188 23.3836C43.2276 23.1432 43.3594 23.0097 43.4144 22.981C44.136 22.501 44.7333 22.3313 45.2083 22.4759C45.8192 22.6455 45.9166 22.8718 45.4995 23.1542C45.445 23.2103 45.2982 23.2316 45.0625 23.2178C44.8268 23.2038 44.6669 23.2103 44.5831 23.2391C44.8338 23.2952 45.0415 23.3732 45.2094 23.4714C45.3751 23.5703 45.4172 23.7046 45.3337 23.874C45.7778 24.1284 45.8616 24.4109 45.584 24.722C45.2223 25.0899 44.7928 25.2447 44.2924 25.1881C44.3763 25.1881 44.3763 25.2448 44.2924 25.3576L43.5833 25.8237C43.5283 25.8515 43.3476 25.922 43.0418 26.0356C42.7362 26.1478 42.5275 26.2759 42.4166 26.4167C42.3337 26.5298 42.2918 26.6992 42.2918 26.926C42.2918 27.1524 42.2778 27.3221 42.25 27.4349C42.2225 27.5484 42.111 27.5757 41.9174 27.5196C41.8334 27.689 41.5767 27.8233 41.1462 27.9216C40.7157 28.0205 40.4311 28.1687 40.2922 28.3663C40.4579 28.5927 40.445 28.8185 40.2501 29.0447C39.9165 29.3276 39.6249 29.2989 39.3752 28.9599C39.2364 29.0165 39.1319 29.1575 39.0625 29.3838C38.9936 29.6101 38.8888 29.7655 38.7507 29.8499C38.9456 30.1608 38.9167 30.3874 38.668 30.528C38.695 30.528 38.7579 30.5567 38.8546 30.6129C38.9515 30.6693 39.0555 30.7398 39.1674 30.8247C39.2783 30.9096 39.347 30.9522 39.3752 30.9522C39.2643 31.2059 39.1109 31.333 38.9167 31.333C39.0835 31.7853 38.8757 32.28 38.2925 32.8165C38.1804 32.9293 38.0067 33.0421 37.771 33.1555C37.5337 33.2683 37.319 33.3599 37.1242 33.4307C36.9294 33.5015 36.8191 33.5508 36.7912 33.579C36.5135 33.8337 36.3046 34.0948 36.1664 34.363C36.0281 34.6318 36.007 34.8928 36.1034 35.1474C36.2008 35.4024 36.4576 35.571 36.8749 35.6564L36.9154 35.9951V36.7576L36.9573 37.0969C36.9857 37.2945 37.0067 37.4713 37.0203 37.6272C37.0339 37.7827 37.0339 37.9797 37.0203 38.2205C37.0067 38.4602 36.944 38.5948 36.8331 38.6223C36.7227 38.6512 36.5698 38.6223 36.375 38.5375C36.1518 38.4247 35.8885 37.8031 35.5823 36.6732C35.5269 36.3908 35.3596 36.0524 35.0819 35.6562C34.9431 35.7974 34.8252 35.8888 34.7283 35.9311C34.6318 35.9737 34.5613 35.9814 34.5209 35.9525C34.479 35.9246 34.4026 35.8606 34.2914 35.7621C34.1804 35.6635 34.084 35.5853 34.0002 35.5294C33.8613 35.4451 33.6186 35.3739 33.2705 35.3181C32.9239 35.2617 32.7075 35.1906 32.6251 35.1063C31.9578 35.6157 31.5547 35.4876 31.416 34.7258C31.3609 34.8665 31.3676 35.057 31.437 35.2979C31.5068 35.5381 31.5414 35.6718 31.5414 35.7002C31.3471 36.068 31.0417 36.0953 30.6249 35.7845C30.4581 35.6157 30.076 35.5945 29.4787 35.7214C28.8813 35.848 28.4855 35.8692 28.2913 35.7845C28.3194 35.7845 28.3746 35.8266 28.4581 35.9118C28.5413 35.9672 28.5972 36.0099 28.6248 36.0384C28.5967 36.1518 28.5553 36.236 28.4994 36.2924C28.4436 36.3484 28.388 36.3698 28.3327 36.3565C28.2771 36.3423 28.2147 36.3423 28.1449 36.3565C28.0754 36.3698 28.0131 36.391 27.9574 36.4195C27.8463 36.5038 27.7077 36.6521 27.5408 36.8639C27.3743 37.0759 27.2494 37.2099 27.1661 37.2657C27.3324 37.7179 27.4091 38.0643 27.3953 38.304C27.3809 38.5448 27.3397 38.8979 27.27 39.3637C27.2002 39.8295 27.1656 40.2045 27.1656 40.4874C27.1656 40.9384 27.2977 41.4626 27.5614 42.055C27.8254 42.6484 28.1377 43.0577 28.4989 43.2843C28.6939 43.3971 29.0274 43.4671 29.4992 43.4952C29.9713 43.524 30.3048 43.4952 30.4991 43.4109C30.6659 43.3272 30.7905 43.2276 30.8738 43.1147C30.9572 43.0019 31.0269 42.8383 31.0821 42.6271C31.1377 42.4157 31.1797 42.2675 31.2075 42.1831C31.4017 41.6457 31.7628 41.3633 32.2899 41.3348C32.6246 41.3065 32.8662 41.343 33.0201 41.4405C33.1729 41.5395 33.2349 41.6736 33.2069 41.8434C33.1788 42.0124 33.1235 42.1892 33.0409 42.373C32.9572 42.5569 32.8532 42.7612 32.728 42.9878C32.6038 43.2148 32.5269 43.384 32.5001 43.4974C32.4445 43.7233 32.3951 44.0408 32.3543 44.4514C32.3124 44.8608 32.2772 45.1083 32.2493 45.1935C32.3054 45.2211 32.5134 45.2352 32.8741 45.2352C32.8741 45.1792 32.8951 45.0867 32.937 44.9598C32.978 44.8329 32.999 44.7551 32.999 44.7272C33.1384 44.9537 33.3607 45.0798 33.6663 45.1083C33.9719 45.1366 34.1946 45.0239 34.3334 44.7694C34.3894 44.8543 34.5561 45.0665 34.834 45.4059C35.1115 45.7442 35.2643 46.0266 35.2925 46.2531C35.3204 46.367 35.3753 46.5499 35.4583 46.8049C35.5422 47.0589 35.5702 47.2357 35.5422 47.3351C35.5143 47.4326 35.3753 47.483 35.1257 47.483C35.0148 47.483 34.945 47.5256 34.9179 47.6099C34.889 47.6952 34.889 47.8003 34.9179 47.9274C34.9459 48.0543 34.9809 48.1748 35.0218 48.2876C35.0632 48.3998 35.1187 48.5208 35.1877 48.6479C35.2585 48.7739 35.2927 48.852 35.2927 48.8803C35.7921 49.8119 36.4733 50.0665 37.3342 49.6435C37.3342 50.4624 37.1395 50.9144 36.7499 50.9987C36.5302 51.0548 36.281 50.9121 36.0032 50.5739ZM36.6255 60.1482C36.5707 59.8657 36.5426 59.6401 36.5457 59.4715C36.5167 59.245 36.6146 58.9411 36.8363 58.5601C37.0584 58.1792 37.1693 57.889 37.1693 57.6914C36.7249 57.5786 36.5584 57.2109 36.6684 56.5896C36.7243 56.1655 37.1268 55.6005 37.877 54.8944C38.4053 54.4139 38.5712 53.7351 38.3774 52.8601C38.2935 52.4927 38.2236 51.9554 38.1686 51.2491C38.1137 50.5425 38.0577 50.0482 38.0018 49.7659C38.0018 49.8502 38.1335 49.928 38.3983 49.9985C38.6621 50.0686 38.8218 50.1611 38.8773 50.2728C38.9327 50.1891 39.0017 50.0331 39.0855 49.8075C39.1684 49.581 39.2525 49.4119 39.3342 49.2985C39.3902 49.2137 39.508 49.108 39.689 48.9804C39.8697 48.8535 39.9876 48.7763 40.043 48.7478C40.0975 48.7199 40.2233 48.6284 40.4171 48.4726C40.6118 48.3172 40.7717 48.1977 40.8969 48.1129C41.0227 48.0282 41.1881 47.9646 41.3969 47.9229C41.6058 47.8803 41.7511 47.9434 41.8339 48.1129C41.9733 48.2827 41.9458 48.5437 41.7511 48.8973C41.5563 49.2508 41.5563 49.4981 41.7511 49.6399C41.7794 49.5545 41.8066 49.3702 41.8339 49.0877C41.8623 48.8052 41.9458 48.5934 42.0842 48.4512C42.251 48.2826 42.4102 48.183 42.5636 48.1555C42.7164 48.1261 42.8547 48.1474 42.9792 48.2191C43.105 48.2897 43.2508 48.3872 43.4168 48.5152C43.5836 48.6421 43.7362 48.72 43.8752 48.7478C44.2917 48.8891 44.7921 49.1999 45.3754 49.6804C45.3476 49.6516 45.3476 49.6164 45.3754 49.5737C45.4035 49.5321 45.4583 49.4895 45.5424 49.4468C45.6253 49.4052 45.7012 49.3626 45.7711 49.3199C45.84 49.2777 45.9159 49.2437 45.9998 49.2148L46.1246 49.1722C46.3184 49.1722 46.4576 49.1584 46.5406 49.1294C46.6234 49.1015 46.7429 49.1294 46.8947 49.2148C47.0466 49.2991 47.1515 49.3626 47.2064 49.4052C47.2623 49.4468 47.3592 49.5246 47.4981 49.6378C47.6369 49.7506 47.7349 49.836 47.7887 49.8918C47.8726 49.9476 48.0254 50.0472 48.2473 50.1885C48.47 50.3297 48.6438 50.4425 48.7687 50.5267C48.8945 50.611 49.0053 50.7391 49.1012 50.9071C49.1981 51.0778 49.2341 51.2613 49.2061 51.4593C49.3731 51.4878 49.7057 51.6 50.2061 51.7976C50.29 51.8535 50.4628 51.9039 50.7274 51.9454C50.9913 51.988 51.1649 52.0521 51.2483 52.1359C47.2235 56.4612 42.3476 59.1311 36.6255 60.1482Z" fill="#40513B"/>
</svg>
