<svg width="64" height="66" viewBox="0 0 64 66" fill="none" xmlns="http://www.w3.org/2000/svg">
<path d="M17.7236 8.9608C17.2566 8.69063 17.0992 8.09202 17.3668 7.62055C17.6344 7.14908 18.2272 6.99016 18.6942 7.26033L20.8611 8.52111C21.3281 8.79128 21.4855 9.38989 21.2179 9.86136C20.9503 10.3328 20.3574 10.4917 19.8905 10.2216L17.7236 8.9608ZM37.7714 22.2732L38.2332 26.9614H46.8903L46.0403 22.2732H37.7714ZM48.3017 22.2732L49.1517 26.9614H55.9305L54.6503 22.2732H48.3017ZM56.5443 29.2181H49.5609L50.2168 32.8468H57.536L56.5443 29.2181ZM58.1551 35.1141H50.6312L51.2871 38.7429H59.1415L58.1551 35.1141ZM59.7606 40.9996H51.6963L52.9241 47.775H61.6075L59.7606 40.9996ZM50.6575 47.775L49.4297 40.9996H39.6078L40.2741 47.775H50.6575ZM38.0285 47.775L37.3622 40.9996H25.2212L24.303 47.775H38.0285ZM22.0574 47.775L22.9756 40.9996H13.6993L12.141 47.775H22.0574ZM9.85342 47.775L11.4117 40.9996H4.23414L2.38728 47.775H9.85342ZM4.85325 38.7429H11.9311L12.7654 35.1141H5.83965L4.85325 38.7429ZM6.45876 32.8468H13.2796L14.1138 29.2181H7.4504L6.45876 32.8468ZM8.06427 26.9614H14.6332L15.7141 22.2732H9.34448L8.06427 26.9614ZM18.0016 22.2732L16.9208 26.9614H24.8697L25.5045 22.2732H18.0016ZM27.7449 22.2732C27.7449 22.3156 27.7396 22.3527 27.7344 22.395L27.1153 26.9614H35.9928L35.5311 22.2732H27.7449ZM62.1007 50.0317H34.3558V60.4623H42.9028V65.2246H21.092V60.4623H29.639V50.0317H1.89408C1.73143 50.0317 1.55829 50.0052 1.38515 49.9575C1.04411 49.8621 0.724053 49.6767 0.487949 49.4278C0.188883 49.1152 0 48.7126 0 48.257C0 48.1246 0.020987 47.9816 0.0629611 47.8332L7.2143 21.6163C7.32448 21.219 7.50812 20.8323 7.79669 20.5409C8.11674 20.2178 8.53123 20.0165 9.05066 20.0165H22.9651C22.1676 18.6869 21.7059 17.1294 21.7059 15.4607C21.7059 13.0345 22.6817 10.8361 24.2558 9.24156C25.8298 7.65234 28.0072 6.66702 30.4155 6.66702C32.8237 6.66702 34.9959 7.65234 36.5752 9.24156C38.1492 10.8308 39.1251 13.0292 39.1251 15.4607C39.1251 17.1294 38.6634 18.6869 37.8659 20.0165H54.9493C55.4215 20.0165 55.8046 20.186 56.1089 20.4615C56.1403 20.488 56.1718 20.5145 56.1981 20.5409C56.4866 20.8323 56.6703 21.219 56.7805 21.6163L63.937 47.8385C63.979 47.9922 64 48.1299 64 48.257C64 48.7126 63.8111 49.1152 63.512 49.4225C63.2759 49.6714 62.9506 49.8568 62.6148 49.9522C62.4365 50.0052 62.2633 50.0317 62.1007 50.0317ZM38.4483 29.2181L38.805 32.8468H47.9554L47.2996 29.2181H38.4483ZM16.4066 29.2181L15.5724 32.8468H24.0721L24.5601 29.2181H16.4066ZM26.811 29.2181L26.323 32.8468H36.5699L36.2131 29.2181H26.811ZM39.0307 35.1141L39.3874 38.7429H49.0257L48.3699 35.1141H39.0307ZM15.053 35.1141L14.2187 38.7429H23.2799L23.7678 35.1141H15.053ZM26.0134 35.1141L25.5255 38.7429H37.1471L36.7903 35.1141H26.0134ZM22.6398 3.43029C22.3722 2.95882 22.5296 2.36022 22.9966 2.09005C23.4635 1.81988 24.0564 1.9788 24.324 2.45027L25.5727 4.63281C25.8403 5.10428 25.6829 5.70289 25.2212 5.97305C24.7542 6.24322 24.1613 6.0843 23.8938 5.61283L22.6398 3.43029ZM29.6337 1.11532C29.6337 0.56969 30.0692 0.130005 30.6096 0.130005C31.15 0.130005 31.5855 0.56969 31.5855 1.11532V3.63689C31.5855 4.18253 31.15 4.62221 30.6096 4.62221C30.0692 4.62221 29.6337 4.18253 29.6337 3.63689V1.11532ZM36.848 2.65157C37.1156 2.1801 37.7085 2.02118 38.1754 2.29135C38.6424 2.56152 38.7998 3.16013 38.5322 3.6316L37.2835 5.81943C37.0159 6.2909 36.423 6.44982 35.9561 6.17965C35.4891 5.90949 35.3317 5.31088 35.5993 4.83941L36.848 2.65157ZM42.3256 7.61525C42.7926 7.34509 43.3855 7.50401 43.6531 7.97548C43.9206 8.44695 43.7632 9.04556 43.2963 9.31572L41.1346 10.5765C40.6676 10.8467 40.0748 10.6878 39.8072 10.2216C39.5396 9.75011 39.697 9.1515 40.164 8.88134L42.3256 7.61525ZM44.6185 14.6767C45.1589 14.6767 45.5944 15.1164 45.5944 15.662C45.5944 16.2077 45.1589 16.6473 44.6185 16.6473H42.121C41.5806 16.6473 41.1451 16.2077 41.1451 15.662C41.1451 15.1164 41.5806 14.6767 42.121 14.6767H44.6185ZM16.202 16.2447C15.6616 16.2447 15.2261 15.8051 15.2261 15.2594C15.2261 14.7138 15.6616 14.2741 16.202 14.2741H18.6995C19.2399 14.2741 19.6754 14.7138 19.6754 15.2594C19.6754 15.8051 19.2399 16.2447 18.6995 16.2447H16.202Z" fill="#40513B"/>
</svg>
