<svg width="64" height="66" viewBox="0 0 64 66" fill="none" xmlns="http://www.w3.org/2000/svg">
<path d="M58 31.0103C59.2 31.0103 60 30.1966 60 28.9761C60 27.7556 59.2 26.9419 58 26.9419H52V22.8735H58C59.2 22.8735 60 22.0598 60 20.8393C60 19.6187 59.2 18.8051 58 18.8051H52C52 15.3469 49.4 12.7024 46 12.7024V6.59982C46 5.3793 45.2 4.56561 44 4.56561C42.8 4.56561 42 5.3793 42 6.59982V12.7024H38V6.59982C38 5.3793 37.2 4.56561 36 4.56561C34.8 4.56561 34 5.3793 34 6.59982V12.7024H30V6.59982C30 5.3793 29.2 4.56561 28 4.56561C26.8 4.56561 26 5.3793 26 6.59982V12.7024H22V6.59982C22 5.3793 21.2 4.56561 20 4.56561C18.8 4.56561 18 5.3793 18 6.59982V12.7024C14.6 12.7024 12 15.3469 12 18.8051H6C4.8 18.8051 4 19.6187 4 20.8393C4 22.0598 4.8 22.8735 6 22.8735H12V26.9419H6C4.8 26.9419 4 27.7556 4 28.9761C4 30.1966 4.8 31.0103 6 31.0103H12V35.0787H6C4.8 35.0787 4 35.8924 4 37.1129C4 38.3335 4.8 39.1471 6 39.1471H12V43.2156H6C4.8 43.2156 4 44.0292 4 45.2498C4 46.4703 4.8 47.284 6 47.284H12C12 50.7421 14.6 53.3866 18 53.3866V59.4892C18 60.7097 18.8 61.5234 20 61.5234C21.2 61.5234 22 60.7097 22 59.4892V53.3866H26V59.4892C26 60.7097 26.8 61.5234 28 61.5234C29.2 61.5234 30 60.7097 30 59.4892V53.3866H34V59.4892C34 60.7097 34.8 61.5234 36 61.5234C37.2 61.5234 38 60.7097 38 59.4892V53.3866H42V59.4892C42 60.7097 42.8 61.5234 44 61.5234C45.2 61.5234 46 60.7097 46 59.4892V53.3866C49.4 53.3866 52 50.7421 52 47.284H58C59.2 47.284 60 46.4703 60 45.2498C60 44.0292 59.2 43.2156 58 43.2156H52V39.1471H58C59.2 39.1471 60 38.3335 60 37.1129C60 35.8924 59.2 35.0787 58 35.0787H52V31.0103H58ZM44 39.1471C44 42.6053 41.4 45.2498 38 45.2498H26C22.6 45.2498 20 42.6053 20 39.1471V26.9419C20 23.4837 22.6 20.8393 26 20.8393H38C41.4 20.8393 44 23.4837 44 26.9419V39.1471Z" fill="#40513B"/>
</svg>
