<svg width="64" height="66" viewBox="0 0 64 66" fill="none" xmlns="http://www.w3.org/2000/svg">
<path d="M6 51.3044L11.2 42.7607C14.2 38.0821 19.2 35.0308 24.8 35.0308H38C38 39.506 34.4 43.1676 30 43.1676H26" stroke="#40513B" stroke-width="2" stroke-miterlimit="10" stroke-linecap="round" stroke-linejoin="round"/>
<path d="M32 43.1676H46L48.4 39.9129C50.6 36.8615 54.2 35.0308 58 35.0308L52.6 44.795C49.8 50.0839 44.2 53.3386 38.4 53.3386C29 53.3386 19.8 56.1865 12 61.4755" stroke="#40513B" stroke-width="2" stroke-miterlimit="10" stroke-linecap="round" stroke-linejoin="round"/>
<path d="M36 20.7913C36 12.8579 42.2 6.55188 50 6.55188C50 14.4853 43.8 20.7913 36 20.7913Z" stroke="#40513B" stroke-width="2" stroke-miterlimit="10" stroke-linecap="round" stroke-linejoin="round"/>
<path d="M36 26.8939C28.2 26.8939 22 20.5878 22 12.6544C29.8 12.6544 36 18.9605 36 26.8939Z" stroke="#40513B" stroke-width="2" stroke-miterlimit="10" stroke-linecap="round" stroke-linejoin="round"/>
<path d="M36 4.51758V35.0307" stroke="#40513B" stroke-width="2" stroke-miterlimit="10" stroke-linecap="round" stroke-linejoin="round"/>
</svg>
